<?xml version="1.0" standalone="no"?><!DOCTYPE svg PUBLIC "-//W3C//DTD SVG 1.1//EN" "http://www.w3.org/Graphics/SVG/1.1/DTD/svg11.dtd"><svg class="icon" width="200px" height="200.00px" viewBox="0 0 1024 1024" version="1.1" xmlns="http://www.w3.org/2000/svg"><path d="M915.84 1015.68H259.84a97.92 97.92 0 0 1-97.92-97.28V105.6A97.92 97.92 0 0 1 259.84 8.32h384a96.64 96.64 0 0 1 64 24.32l275.84 244.48a97.28 97.28 0 0 1 32 72.32v568.96a97.28 97.28 0 0 1-99.84 97.28zM259.84 72.32a33.28 33.28 0 0 0-33.92 33.28v812.8a33.28 33.28 0 0 0 33.92 33.28h656a33.28 33.28 0 0 0 33.28-33.28V349.44a32 32 0 0 0-10.88-24.32l-275.2-244.48a32.64 32.64 0 0 0-23.04-8.32z" fill="#4B784F" /><path d="M960 357.12h-320a32 32 0 0 1-32-32V40.32h64v256H960z" fill="#4B784F" /><path d="M3.2 419.84m64 0l735.36 0q64 0 64 64l0 238.72q0 64-64 64l-735.36 0q-64 0-64-64l0-238.72q0-64 64-64Z" fill="#4D7A51" /><path d="M53.12 512h131.84v25.6H83.2v50.56h96v25.6H83.2v55.68H192v25.6H53.12z" fill="#FFFFFF" /><path d="M192 512h37.12l42.88 64 42.88-64h36.48l-64 88.32 64 94.72H320l-48-71.68-47.36 71.04h-36.48L256 599.68zM494.72 524.8a64 64 0 0 1 23.68 44.16h-28.8a41.6 41.6 0 0 0-17.28-26.24 53.12 53.12 0 0 0-31.36-8.32 49.92 49.92 0 0 0-43.52 19.84 77.44 77.44 0 0 0-13.44 48.64 80 80 0 0 0 13.44 49.92 53.12 53.12 0 0 0 44.16 18.56 51.2 51.2 0 0 0 32-9.6 55.04 55.04 0 0 0 18.56-30.72h28.8a81.28 81.28 0 0 1-28.16 49.92 78.08 78.08 0 0 1-51.2 16.64 81.92 81.92 0 0 1-67.84-28.16 105.6 105.6 0 0 1-19.2-64 101.12 101.12 0 0 1 19.84-64 80.64 80.64 0 0 1 64-28.8 81.92 81.92 0 0 1 56.32 12.16zM536.32 512h131.84v25.6H566.4v50.56h96v25.6h-96v55.68h106.24v25.6H536.32zM688 512h30.08v157.44h98.56v25.6h-128z" fill="#FFFFFF" /></svg>