<?xml version="1.0" standalone="no"?><!DOCTYPE svg PUBLIC "-//W3C//DTD SVG 1.1//EN" "http://www.w3.org/Graphics/SVG/1.1/DTD/svg11.dtd"><svg t="1597888236097" class="icon" viewBox="0 0 1024 1024" version="1.1" xmlns="http://www.w3.org/2000/svg" p-id="2288" xmlns:xlink="http://www.w3.org/1999/xlink" width="200" height="200"><defs><style type="text/css"></style></defs><path d="M855.178378 489.64657a31.933472 31.933472 0 0 0-60.247817 21.288981A399.381289 399.381289 0 0 1 820.690229 634.411642c0 179.679002-138.378378 325.721414-308.690229 325.721414S203.309771 814.090644 203.309771 634.411642 449.410395 96.439085 511.57422 64.931393a238.010811 238.010811 0 0 1 50.880666 47.687318 31.933472 31.933472 0 0 0 47.900208-42.577963C555.429522 8.089813 528.818295 0 512 0 416.199584 0 139.442827 441.320582 139.442827 634.411642c0 214.805821 167.118503 389.588358 372.557173 389.588358S884.557173 849.217464 884.557173 634.411642a455.37131 455.37131 0 0 0-29.378795-144.765072z" fill="#ffffff" p-id="2289"></path><path d="M660.17131 249.081081H586.511435a31.933472 31.933472 0 0 0 0 63.866944h73.659875l-37.468607 64.931393a31.933472 31.933472 0 1 0 55.351351 31.933472l37.255717-63.866944 37.255718 63.866944a31.933472 31.933472 0 0 0 55.351351-31.933472l-37.468607-64.931393h75.788773a31.933472 31.933472 0 0 0 0-63.866944h-75.788773l37.468607-64.931393a31.933472 31.933472 0 1 0-55.351351-31.933472l-37.255718 63.866944-37.255717-63.866944a31.933472 31.933472 0 0 0-55.351351 31.933472zM661.022869 702.536383c0 63.866944-66.847401 117.089397-149.022869 117.089397s-149.022869-52.583784-149.022869-117.089397a31.933472 31.933472 0 0 0-63.866944 0c0 99.845322 95.587526 180.956341 212.889813 180.95634s212.889813-81.111019 212.889813-180.95634a31.933472 31.933472 0 0 0-63.866944 0z" fill="#ffffff" p-id="2290"></path></svg>