<?xml version="1.0" standalone="no"?><!DOCTYPE svg PUBLIC "-//W3C//DTD SVG 1.1//EN" "http://www.w3.org/Graphics/SVG/1.1/DTD/svg11.dtd"><svg t="1597889658919" class="icon" viewBox="0 0 1024 1024" version="1.1" xmlns="http://www.w3.org/2000/svg" p-id="5714" xmlns:xlink="http://www.w3.org/1999/xlink" width="200" height="200"><defs><style type="text/css"></style></defs><path d="M608.64 1015.68H247.68a96 96 0 0 1-96.64-96.64V104.32A96.64 96.64 0 0 1 247.68 7.68h565.76a96.64 96.64 0 0 1 96.64 96.64v512A31.36 31.36 0 0 1 896 640a30.08 30.08 0 0 1-29.44 0 209.28 209.28 0 0 0-79.36-16A205.44 205.44 0 0 0 582.4 832a200.96 200.96 0 0 0 49.92 132.48 31.36 31.36 0 0 1-23.68 51.84zM247.68 71.04a33.28 33.28 0 0 0-33.92 33.28v814.72a33.92 33.92 0 0 0 33.92 33.92h301.44a268.8 268.8 0 0 1 298.24-384V104.32a33.28 33.28 0 0 0-33.92-33.28z" fill="#ffffff" p-id="5715"></path><path d="M757.12 907.52a30.08 30.08 0 0 1-22.4-9.6l-64-64a31.36 31.36 0 0 1 0-44.16 32 32 0 0 1 44.8 0l44.16 44.16 93.44-93.44a30.72 30.72 0 0 1 44.8 0 31.36 31.36 0 0 1 0 44.16L779.52 896a31.36 31.36 0 0 1-22.4 11.52zM534.4 256H290.56a31.36 31.36 0 1 1 0-64h243.84a31.36 31.36 0 1 1 0 64zM448 673.92H290.56a32 32 0 0 1 0-64H448a32 32 0 1 1 0 64zM744.96 407.68h-454.4a32 32 0 0 1 0-64h454.4a32 32 0 0 1 0 64zM744.96 528.64h-454.4a31.36 31.36 0 0 1 0-64h454.4a31.36 31.36 0 1 1 0 64z" fill="#ffffff" p-id="5716"></path></svg>