<?xml version="1.0" standalone="no"?><!DOCTYPE svg PUBLIC "-//W3C//DTD SVG 1.1//EN" "http://www.w3.org/Graphics/SVG/1.1/DTD/svg11.dtd"><svg t="1597889033621" class="icon" viewBox="0 0 1443 1024" version="1.1" xmlns="http://www.w3.org/2000/svg" p-id="2512" xmlns:xlink="http://www.w3.org/1999/xlink" width="281.8359375" height="200"><defs><style type="text/css"></style></defs><path d="M1435.179899 19.38614a42.761657 42.761657 0 0 0-42.761657-18.815129L35.448328 243.457222a42.761657 42.761657 0 0 0-21.380828 73.835128l296.765899 270.253672V881.461144a42.761657 42.761657 0 0 0 70.129117 31.358548l150.235955-126.004349 246.877299 224.641238a42.761657 42.761657 0 0 0 28.507772 11.11803h5.701554a42.761657 42.761657 0 0 0 30.503315-19.385284L1436.035132 66.138885a42.761657 42.761657 0 0 0-0.855233-46.752745zM1125.87058 135.697847L362.147387 518.557215l-226.351704-206.111186zM396.356713 789.66612v-124.293883l71.269428 64.712641zM798.316288 915.385391L429.995883 580.134001 1278.957312 154.512976z" fill="#ffffff" p-id="2513"></path></svg>