<?xml version="1.0" standalone="no"?><!DOCTYPE svg PUBLIC "-//W3C//DTD SVG 1.1//EN" "http://www.w3.org/Graphics/SVG/1.1/DTD/svg11.dtd"><svg t="1597889876846" class="icon" viewBox="0 0 1024 1024" version="1.1" xmlns="http://www.w3.org/2000/svg" p-id="5932" xmlns:xlink="http://www.w3.org/1999/xlink" width="200" height="200"><defs><style type="text/css"></style></defs><path d="M861.44 1015.04H162.56A101.76 101.76 0 0 1 64 913.28V120.96A101.76 101.76 0 0 1 162.56 19.2h698.88a101.76 101.76 0 0 1 101.76 101.76v792.32a101.76 101.76 0 0 1-101.76 101.76zM162.56 95.36a25.6 25.6 0 0 0-26.24 25.6v792.32a26.24 26.24 0 0 0 26.24 26.24h698.88a26.24 26.24 0 0 0 26.24-26.24V120.96a25.6 25.6 0 0 0-26.24-25.6z" fill="#ffffff" p-id="5933"></path><path d="M750.08 282.24H262.4a37.76 37.76 0 0 1 0-75.52h487.68a37.76 37.76 0 0 1 0 75.52zM576 415.36H262.4a37.76 37.76 0 0 1 0-75.52H576a37.76 37.76 0 1 1 0 75.52zM407.68 540.8H262.4a32 32 0 1 1 0-64h145.28a32 32 0 1 1 0 64zM469.12 723.2a24.96 24.96 0 0 1-21.12-13.44A147.2 147.2 0 0 1 640 512a23.68 23.68 0 1 1-21.12 42.88A97.92 97.92 0 0 0 576 544.64a99.2 99.2 0 0 0-99.2 99.2 96 96 0 0 0 10.88 44.16 24.32 24.32 0 0 1-10.88 32.64 20.48 20.48 0 0 1-7.68 2.56z" fill="#ffffff" p-id="5934"></path><path d="M663.68 917.76a23.68 23.68 0 0 1-22.4-14.72L534.4 628.48a23.68 23.68 0 0 1 5.12-25.6 21.76 21.76 0 0 1 24.96-5.76l277.76 99.2a24.96 24.96 0 0 1 16 21.76 23.68 23.68 0 0 1-14.08 22.4l-109.44 51.84-48.64 111.36a23.68 23.68 0 0 1-22.4 14.08z m-64-256l64 171.52 28.16-64a32 32 0 0 1 6.4-8.96l8.32-6.4 64-30.08z" fill="#ffffff" p-id="5935"></path></svg>