<?xml version="1.0" standalone="no"?><!DOCTYPE svg PUBLIC "-//W3C//DTD SVG 1.1//EN" "http://www.w3.org/Graphics/SVG/1.1/DTD/svg11.dtd"><svg t="1597901044421" class="icon" viewBox="0 0 1024 1024" version="1.1" xmlns="http://www.w3.org/2000/svg" p-id="2166" xmlns:xlink="http://www.w3.org/1999/xlink" width="200" height="200"><defs><style type="text/css"></style></defs><path d="M 620.544 760.218 h -196.608 c -33.792 0 -61.44 -27.648 -61.44 -61.44 V 465.51 h -129.024 a 43.008 43.008 0 0 1 -31.3344 -72.4992 L 450.97 130.662 c 18.8416 -19.8656 44.032 -30.72 71.2704 -30.72 s 52.6336 10.8544 71.2704 30.72 l 248.627 262.349 c 11.8784 12.4928 15.1552 30.72 8.192 46.4896 s -22.3232 26.0096 -39.5264 26.0096 h -129.024 v 233.267 c 0.2048 33.9968 -27.2384 61.44 -61.2352 61.44 Z M 247.808 416.358 H 368.64 c 23.7568 0 43.008 19.2512 43.008 43.008 v 239.411 c 0 6.7584 5.5296 12.288 12.288 12.288 h 196.608 c 6.7584 0 12.288 -5.5296 12.288 -12.288 V 459.366 c 0 -23.7568 19.2512 -43.008 43.008 -43.008 h 120.832 L 557.875 164.454 c -18.8416 -19.8656 -52.6336 -19.8656 -71.2704 0 L 247.808 416.358 Z M 645.12 843.776 h -245.76 c -13.5168 0 -24.576 -11.0592 -24.576 -24.576 s 11.0592 -24.576 24.576 -24.576 h 245.76 c 13.5168 0 24.576 11.0592 24.576 24.576 s -11.0592 24.576 -24.576 24.576 Z M 706.56 925.696 h -368.64 c -13.5168 0 -24.576 -11.0592 -24.576 -24.576 s 11.0592 -24.576 24.576 -24.576 h 368.64 c 13.5168 0 24.576 11.0592 24.576 24.576 s -11.0592 24.576 -24.576 24.576 Z" p-id="2167" fill="#ffffff"></path></svg>