<?xml version="1.0" standalone="no"?><!DOCTYPE svg PUBLIC "-//W3C//DTD SVG 1.1//EN" "http://www.w3.org/Graphics/SVG/1.1/DTD/svg11.dtd"><svg class="icon" width="200px" height="200.00px" viewBox="0 0 1024 1024" version="1.1" xmlns="http://www.w3.org/2000/svg"><path d="M918.4 1015.68H262.4a97.92 97.92 0 0 1-97.92-97.28V105.6A97.92 97.92 0 0 1 262.4 8.32h384a96.64 96.64 0 0 1 64 24.32l275.84 244.48a97.28 97.28 0 0 1 32 72.32v568.96a97.28 97.28 0 0 1-99.84 97.28zM262.4 72.32a33.28 33.28 0 0 0-33.92 33.28v812.8a33.28 33.28 0 0 0 33.92 33.28h656a33.28 33.28 0 0 0 33.28-33.28V349.44a32 32 0 0 0-10.88-24.32l-275.84-244.48a30.08 30.08 0 0 0-21.76-8.32z" fill="#3F75B6" /><path d="M960 357.12h-320a32 32 0 0 1-32-32V40.32h64v256H960z" fill="#3F75B6" /><path d="M5.76 419.84m64 0l609.92 0q64 0 64 64l0 238.72q0 64-64 64l-609.92 0q-64 0-64-64l0-238.72q0-64 64-64Z" fill="#3F75B6" /><path d="M138.88 525.44h101.12a159.36 159.36 0 0 0-23.68-33.28l26.88-10.24a200.32 200.32 0 0 1 25.6 43.52h96.64v26.24h-38.4a256 256 0 0 1-53.76 96.64A351.36 351.36 0 0 0 371.2 704l-14.72 23.04A362.24 362.24 0 0 1 256 666.88a261.12 261.12 0 0 1-105.6 55.68l-14.08-23.68a249.6 249.6 0 0 0 101.12-49.28 218.88 218.88 0 0 1-57.6-97.92h-40.96z m64 26.24A200.32 200.32 0 0 0 256 631.68a219.52 219.52 0 0 0 45.44-80zM384 529.28h97.92v-43.52H512v43.52h94.08v25.6H528.64a259.2 259.2 0 0 0 86.4 100.48l-18.56 23.04A302.08 302.08 0 0 1 512 555.52v90.88h51.84v26.24H512v49.28h-30.08v-49.28h-49.92v-26.24h49.92V555.52a271.36 271.36 0 0 1-91.52 128l-15.36-24.96a237.44 237.44 0 0 0 86.4-103.68H384z" fill="#FFFFFF" /></svg>