<svg class="icon" viewBox="0 0 1024 1024" xmlns="http://www.w3.org/2000/svg"><path d="M470.294 586.876a35.088 35.088 0 0 1-35.087-35.088V230.923a35.088 35.088 0 0 1 70.175 0v320.865a35.088 35.088 0 0 1-35.088 35.088zm140.384 78.147a35.088 35.088 0 0 1-35.088-35.088V299.212a35.088 35.088 0 0 1 70.175 0v330.723a35.088 35.088 0 0 1-35.087 35.088zM751.05 586.47a35.088 35.088 0 0 1-35.087-35.087V230.572a35.088 35.088 0 1 1 70.175 0v320.81a35.088 35.088 0 0 1-35.088 35.088z"/><path fill="#333" d="M841.127 675.615a125 125 0 0 1-124.88-124.868 35.088 35.088 0 0 1 70.176 0 54.704 54.704 0 1 0 109.397 0 35.088 35.088 0 0 1 70.175 0 125 125 0 0 1-124.868 124.868zm-460.613 0a125 125 0 0 1-124.88-124.868 35.088 35.088 0 0 1 70.176 0 54.704 54.704 0 1 0 109.397 0 35.088 35.088 0 0 1 70.175 0 125 125 0 0 1-124.868 124.868zM961.62 806.47H258.047a35.088 35.088 0 0 1 0-70.175H961.62a35.088 35.088 0 0 1 0 70.175z"/></svg>