<svg class="icon" viewBox="0 0 1024 1024" xmlns="http://www.w3.org/2000/svg"><path d="M229.76 355.2c-6.507 0-13.013-1.813-18.88-5.653-15.68-10.454-19.947-31.574-9.6-47.36 69.547-104.747 186.027-167.254 311.68-167.254 124.373 0 240.213 61.654 309.973 164.8 10.56 15.574 6.4 36.8-9.173 47.36-15.573 10.56-36.8 6.4-47.36-9.173-57.067-84.48-151.787-134.827-253.44-134.827-102.613 0-197.867 51.094-254.72 136.747-6.613 9.92-17.387 15.36-28.48 15.36z"/><path d="M699.093 790.827c-13.226 0-25.92-7.787-31.466-20.8l-156.16-366.08L356.693 769.92c-7.36 17.387-27.413 25.493-44.693 18.133-17.387-7.36-25.493-27.413-18.133-44.693l179.946-425.493.96-1.707c7.467-13.12 21.44-21.227 36.587-21.333 15.04 0 29.12 8.106 36.587 21.226l.96 1.707.746 1.813 180.694 423.68c7.36 17.387-.64 37.44-18.027 44.8-4.267 1.92-8.853 2.774-13.227 2.774zM369.387 602.133h275.52"/><path d="M369.387 568h275.626v68.267H369.387z"/></svg>