<svg class="icon" viewBox="0 0 1024 1024" xmlns="http://www.w3.org/2000/svg"><path d="M528.64 449.728l112.8-112.768a32 32 0 1 1 45.12 45.12L575.072 493.568a64 64 0 1 1-46.4-43.84zM801.76 672h-192a32 32 0 0 1 0-64h192a32 32 0 1 1 0 64zm0 160h-64a32 32 0 0 1 0-64h64a32 32 0 1 1 0 64zm-192 0H312.8a112.32 112.32 0 1 1 0-224h104.96a32 32 0 0 1 0 64H312.8a48.32 48.32 0 1 0 0 96h296.96a32 32 0 0 1 0 64zM356 310.4l9.92 9.92a32 32 0 0 1-22.4 54.4 32 32 0 0 1-22.72-9.28l-9.792-9.76A254.72 254.72 0 0 0 259.744 480h30.016a32 32 0 1 1 0 64h-64a32 32 0 0 1-32-32c0-176.736 143.264-320 320-320s320 143.264 320 320a32 32 0 0 1-32 32h-64a32 32 0 0 1 0-64h30.016A256.128 256.128 0 0 0 545.76 257.984V288a32 32 0 1 1-64 0v-30.016A254.752 254.752 0 0 0 356 310.4z"/></svg>