<svg class="icon" viewBox="0 0 1024 1024" xmlns="http://www.w3.org/2000/svg"><path d="M738.844 841.58c-113.108 0-204.8-91.692-204.8-204.8 0-163.161 143.268-310.37 190.135-354.163.137.137.289.259.431.393a19.936 19.936 0 0 1 29.2-.292C800.981 326.287 943.644 471.7 943.644 636.78c0 113.108-91.692 204.8-204.8 204.8zm14.076-476.424c-.021.02-.044.036-.065.056a16.955 16.955 0 0 0-27.02 0c-.15-.138-.311-.264-.457-.406C689.331 404.651 593.349 521.52 593.349 636.2c0 80.244 65.141 145.294 145.5 145.294S884.344 716.443 884.344 636.2c0-116.98-94.925-231.377-131.424-271.044zm5.424 367.344h-4a110 110 0 0 1-105.54-141h.471a29.5 29.5 0 0 1 57.069 10.5c0 2.724-2 9.086-2 20.5a50 50 0 0 0 50 50c1.348 0 2.679-.069 4-.174v.174a30 30 0 0 1 0 60zm-358 43a140.354 140.354 0 0 0 29-3.033v.184c.987-.1 1.987-.151 3-.151a29.984 29.984 0 0 1 4 59.7v.059a201.146 201.146 0 0 1-36 3.241c-110.457 0-200-89.543-200-200a200.472 200.472 0 0 1 5.225-45.528 29.982 29.982 0 1 1 59.325 8.528h.4a140.077 140.077 0 0 0 135.05 177zm173-443a29.95 29.95 0 0 1-25.286-13.9c-.121.157-.255.3-.368.466-51.356-75.812-106.381-131.477-132.256-156.466-.14.161-.3-.695-.445-.538a17.964 17.964 0 0 0-29.292 0c-.088-.095-.187-.18-.274-.278C330.176 216.364 140.344 419.6 140.344 635.5c0 143.594 116.406 260 260 260a258.778 258.778 0 0 0 147.6-45.952 29.972 29.972 0 1 1 38.88 45.552c.069.094.131.193.2.285a318.466 318.466 0 0 1-186.68 60.115c-176.731 0-320-143.269-320-320 0-264.941 241.8-503 305.017-560.713.08.078.169.145.249.222a19.931 19.931 0 0 1 28.46-1.029c.085-.093.181-.177.265-.272 31.707 28.469 111.748 104.84 182.017 209.046l-.22.266a29.977 29.977 0 0 1-22.788 49.48z"/></svg>