<svg class="icon" viewBox="0 0 1024 1024" xmlns="http://www.w3.org/2000/svg" width="32" height="32"><path d="M543.097 630.338V355.665c0-16.698-13.599-30.297-30.297-30.297h-2.4c-16.298 0-29.397 13.199-29.397 29.397v275.573c-45.196 13.1-78.292 53.495-78.292 101.69 0 58.895 48.895 106.59 109.389 106.59 60.394 0 109.29-47.795 109.29-106.59-.1-48.195-33.197-88.49-78.293-101.69zM703.981 508.65c-6.8-5.6-10.799-13.198-10.799-20.998v-310.57C693.182 79.393 611.89 0 512 0c-99.89 0-181.182 79.392-181.182 177.083v301.77c0 13.099-5.4 25.198-14.699 33.097-65.493 55.295-102.99 135.587-102.99 220.179C213.13 893.013 347.216 1024 512.1 1024s298.97-130.887 298.97-291.871c-.1-86.592-39.095-168.084-107.089-223.479zM512 931.31c-112.989 0-204.78-89.392-204.78-199.281 0-68.494 35.797-131.488 95.69-168.384l14.5-8.9c4.699-2.899 7.598-8.098 7.598-13.598V177.083c0-46.596 39.097-84.492 87.092-84.492s87.091 37.896 87.091 84.492v364.064c0 5.5 2.9 10.7 7.6 13.599l14.498 8.899c59.894 36.896 95.591 99.79 95.591 168.384-.1 109.889-91.991 199.28-204.88 199.28z"/></svg>