<svg class="icon" viewBox="0 0 1024 1024" xmlns="http://www.w3.org/2000/svg"><path d="M220.956 349.753c-6.94 0-13.88-1.934-20.138-6.03-16.726-11.15-21.277-33.679-10.24-50.518C262.485 184.89 382.976 120.15 512.91 120.15c128.683 0 248.49 63.716 320.626 170.44 11.264 16.611 6.827 39.253-9.785 50.517-16.611 11.264-39.253 6.826-50.517-9.785-58.596-86.699-155.876-138.354-260.21-138.354-105.472 0-203.207 52.565-261.689 140.516-6.94 10.467-18.546 16.27-30.379 16.27zm290.589 448.17c-15.36 0-29.696-8.305-37.32-21.617l-1.023-1.82-146.09-345.544c-7.852-18.546.796-39.936 19.341-47.673 18.546-7.85 39.936.797 47.673 19.343L511.66 678.457l118.556-277.96c7.85-18.545 29.241-27.078 47.787-19.228 18.546 7.851 27.079 29.241 19.228 47.787l-147.342 345.43-1.024 1.82c-7.737 13.312-21.96 21.618-37.32 21.618z"/></svg>