<?xml version="1.0" standalone="no"?><!DOCTYPE svg PUBLIC "-//W3C//DTD SVG 1.1//EN" "http://www.w3.org/Graphics/SVG/1.1/DTD/svg11.dtd"><svg class="icon" width="200px" height="200.00px" viewBox="0 0 1024 1024" version="1.1" xmlns="http://www.w3.org/2000/svg"><path d="M652.8 963.2H100.48A97.92 97.92 0 0 1 0 865.28V145.28A97.92 97.92 0 0 1 100.48 48h454.4L750.08 256v300.16h-64V279.68L527.36 112H100.48a33.28 33.28 0 0 0-33.28 33.28v720a33.28 33.28 0 0 0 33.28 33.28h552.32a33.92 33.92 0 0 0 26.88-13.44l51.84 37.76a97.28 97.28 0 0 1-78.72 40.32z"  /><path d="M718.08 314.24h-128A97.92 97.92 0 0 1 492.8 216.96V80h64v136.96a33.28 33.28 0 0 0 33.28 33.28h128zM251.52 796.8a32 32 0 0 1-32-32.64V451.2a32 32 0 0 1 32-32 32 32 0 0 1 32.64 32v312.96a32.64 32.64 0 0 1-32.64 32.64zM512 807.68a32 32 0 0 1-32-32.64V404.48a32 32 0 0 1 64 0v370.56a32 32 0 0 1-32 32.64zM384 796.8a32 32 0 0 1-32-32.64V554.24a32 32 0 0 1 64 0v209.92a32 32 0 0 1-32 32.64zM796.16 969.6a223.36 223.36 0 1 1 223.36-223.36 222.72 222.72 0 0 1-223.36 223.36z m0-384a158.72 158.72 0 1 0 158.72 158.08 158.72 158.72 0 0 0-158.72-155.52z"  /><path d="M815.36 775.04a42.24 42.24 0 0 1-33.92-17.28 42.88 42.88 0 0 1-3.2-45.44L857.6 563.2l56.96 30.08-58.24 110.72 110.72-21.12 12.16 64-155.52 30.08z"  /></svg>