<?xml version="1.0" standalone="no"?><!DOCTYPE svg PUBLIC "-//W3C//DTD SVG 1.1//EN" "http://www.w3.org/Graphics/SVG/1.1/DTD/svg11.dtd"><svg class="icon" width="200px" height="200.00px" viewBox="0 0 1024 1024" version="1.1" xmlns="http://www.w3.org/2000/svg"><path   d="M974.08 151.68a101.76 101.76 0 0 0-33.28-68.48l-50.56-43.52a94.08 94.08 0 0 0-69.76-25.6 78.08 78.08 0 0 0-52.48 27.52L300.16 590.08l-39.04 202.24a35.2 35.2 0 0 0 10.24 32 33.92 33.92 0 0 0 23.68 7.68h10.24l178.56-64h5.76L960 220.16a85.12 85.12 0 0 0 14.08-68.48z m-640 598.4l19.84-100.48 74.24 67.84z m143.36-76.8L389.12 594.56l332.8-395.52 85.76 79.36z m428.8-512v3.84l-46.08 53.76-88.96-76.8 45.44-54.4a23.04 23.04 0 0 1 31.36 0l50.56 45.44a26.88 26.88 0 0 1 8.96 17.92 19.84 19.84 0 0 1-3.84 12.8zM932.48 945.28H70.4a33.28 33.28 0 0 1 0-64h862.08a33.28 33.28 0 1 1 0 64z"  /></svg>