<?xml version="1.0" standalone="no"?><!DOCTYPE svg PUBLIC "-//W3C//DTD SVG 1.1//EN" "http://www.w3.org/Graphics/SVG/1.1/DTD/svg11.dtd"><svg class="icon" width="200px" height="200.00px" viewBox="0 0 1024 1024" version="1.1" xmlns="http://www.w3.org/2000/svg"><path   d="M921.6 731.52H102.4A94.72 94.72 0 0 1 7.68 640V403.2A94.72 94.72 0 0 1 102.4 308.48h819.2a94.72 94.72 0 0 1 94.72 94.72V640a94.72 94.72 0 0 1-94.72 91.52zM102.4 370.56a32.64 32.64 0 0 0-33.28 32.64V640a33.28 33.28 0 0 0 33.28 33.28h819.2a33.28 33.28 0 0 0 33.28-33.28V403.2a32.64 32.64 0 0 0-33.28-32.64z"  /><path   d="M950.4 480H64a23.68 23.68 0 0 1-23.04-23.68 23.04 23.04 0 0 1 23.04-23.04h886.4a23.04 23.04 0 0 1 23.04 23.04 23.68 23.68 0 0 1-23.04 23.68zM950.4 603.52H64a23.68 23.68 0 0 1 0-46.72h886.4a23.68 23.68 0 0 1 0 46.72z"  /><path   d="M326.4 711.04a23.68 23.68 0 0 1-23.68-23.04V456.32a23.68 23.68 0 0 1 23.68-23.04 23.04 23.04 0 0 1 23.04 23.04v231.68a23.04 23.04 0 0 1-23.04 23.04zM698.88 711.04a23.04 23.04 0 0 1-23.04-23.04V456.32a23.04 23.04 0 0 1 46.08 0v231.68a23.04 23.04 0 0 1-23.04 23.04z"  /></svg>