<?xml version="1.0" standalone="no"?><!DOCTYPE svg PUBLIC "-//W3C//DTD SVG 1.1//EN" "http://www.w3.org/Graphics/SVG/1.1/DTD/svg11.dtd"><svg class="icon" width="200px" height="200.00px" viewBox="0 0 1024 1024" version="1.1" xmlns="http://www.w3.org/2000/svg"><path   d="M789.12 210.56H42.88a35.2 35.2 0 0 1-35.2-35.2 35.2 35.2 0 0 1 35.2-34.56h746.24a34.56 34.56 0 0 1 35.2 34.56 35.2 35.2 0 0 1-35.2 35.2zM981.12 544.64H42.88a35.2 35.2 0 1 1 0-69.76h938.24a35.2 35.2 0 1 1 0 69.76zM981.12 878.72H42.88a35.2 35.2 0 0 1-35.2-34.56 35.2 35.2 0 0 1 35.2-35.2h938.24a35.2 35.2 0 0 1 35.2 35.2 35.2 35.2 0 0 1-35.2 34.56z"  /><path   d="M949.12 175.36m-32 0a32 32 0 1 0 64 0 32 32 0 1 0-64 0Z"  /></svg>