<?xml version="1.0" standalone="no"?><!DOCTYPE svg PUBLIC "-//W3C//DTD SVG 1.1//EN" "http://www.w3.org/Graphics/SVG/1.1/DTD/svg11.dtd"><svg class="icon" width="200px" height="200.00px" viewBox="0 0 1024 1024" version="1.1" xmlns="http://www.w3.org/2000/svg"><path   d="M512 1018.24A504.96 504.96 0 1 1 1016.32 512 504.96 504.96 0 0 1 512 1018.24zM512 75.52A438.4 438.4 0 1 0 949.76 512 438.4 438.4 0 0 0 512 75.52z"  /><path   d="M512 547.2a29.44 29.44 0 0 1-12.8-3.2 32.64 32.64 0 0 1-20.48-32V42.24a33.28 33.28 0 0 1 64 0v393.6L832 163.84a33.28 33.28 0 0 1 46.72 0 33.92 33.92 0 0 1 0 47.36L535.04 537.6a32.64 32.64 0 0 1-23.04 9.6z"  /></svg>