<?xml version="1.0" standalone="no"?><!DOCTYPE svg PUBLIC "-//W3C//DTD SVG 1.1//EN" "http://www.w3.org/Graphics/SVG/1.1/DTD/svg11.dtd"><svg class="icon" width="200px" height="200.00px" viewBox="0 0 1024 1024" version="1.1" xmlns="http://www.w3.org/2000/svg"><path   d="M390.4 499.84H231.04a33.28 33.28 0 0 1 0-64H390.4a33.28 33.28 0 1 1 0 64zM777.6 499.84H618.24a33.28 33.28 0 1 1 0-64h159.36a33.28 33.28 0 0 1 0 64z"  /><path   d="M192 595.84H76.16a70.4 70.4 0 0 1-70.4-70.4V408.32a70.4 70.4 0 0 1 70.4-70.4H192a70.4 70.4 0 0 1 70.4 70.4v117.12A70.4 70.4 0 0 1 192 595.84z m-117.76-192l-4.48 121.6L192 529.92a4.48 4.48 0 0 0 4.48-4.48V408.32zM570.88 595.84H453.12A70.4 70.4 0 0 1 384 525.44V408.32a70.4 70.4 0 0 1 70.4-70.4h116.48A70.4 70.4 0 0 1 640 408.32v117.12a70.4 70.4 0 0 1-69.12 70.4z m-117.76-192L448 525.44l122.24 4.48A4.48 4.48 0 0 0 576 525.44V408.32zM947.84 595.84H832a70.4 70.4 0 0 1-70.4-70.4V408.32a70.4 70.4 0 0 1 70.4-70.4h117.76a70.4 70.4 0 0 1 70.4 70.4v117.12a70.4 70.4 0 0 1-72.32 70.4z m-115.84-192l-4.48 121.6 122.24 4.48a4.48 4.48 0 0 0 4.48-4.48V408.32z"  /></svg>