<?xml version="1.0" standalone="no"?><!DOCTYPE svg PUBLIC "-//W3C//DTD SVG 1.1//EN" "http://www.w3.org/Graphics/SVG/1.1/DTD/svg11.dtd"><svg class="icon" width="200px" height="200.00px" viewBox="0 0 1024 1024" version="1.1" xmlns="http://www.w3.org/2000/svg"><path   d="M512 1009.92a497.92 497.92 0 1 1 289.92-903.04 32 32 0 0 1 7.68 44.8 32.64 32.64 0 0 1-44.8 7.68A425.6 425.6 0 0 0 512 78.08 433.92 433.92 0 1 0 945.92 512a32 32 0 0 1 64 0A498.56 498.56 0 0 1 512 1009.92z"  /><path   d="M640 662.4a33.92 33.92 0 0 1-17.28-5.12l-157.44-102.4A32 32 0 0 1 448 528V197.76a32.64 32.64 0 0 1 32-32 32 32 0 0 1 32 32V512l142.72 92.8a32 32 0 0 1 8.96 44.16 30.72 30.72 0 0 1-23.68 13.44zM714.24 225.28a32.64 32.64 0 0 1-32-26.88 32 32 0 0 1 26.88-36.48l93.44-14.08-14.08-93.44a31.36 31.36 0 0 1 26.88-35.84 32 32 0 0 1 36.48 26.88l18.56 128a31.36 31.36 0 0 1-5.76 23.68 33.92 33.92 0 0 1-21.12 12.16l-124.8 19.2z"  /></svg>