<?xml version="1.0" standalone="no"?><!DOCTYPE svg PUBLIC "-//W3C//DTD SVG 1.1//EN" "http://www.w3.org/Graphics/SVG/1.1/DTD/svg11.dtd"><svg class="icon" width="200px" height="200.00px" viewBox="0 0 1024 1024" version="1.1" xmlns="http://www.w3.org/2000/svg"><path   d="M800.64 552.32a32.64 32.64 0 1 1 0-64 149.12 149.12 0 0 0 0-298.24h-192A32.64 32.64 0 0 1 576 156.16a32.64 32.64 0 0 1 32.64-32.64h192a214.4 214.4 0 0 1 0 428.8z"  /><path   d="M429.44 916.48H230.4a215.04 215.04 0 1 1 0-429.44h576a32.64 32.64 0 0 1 0 64h-576a149.76 149.76 0 1 0 0 298.88h199.04a32.64 32.64 0 0 1 32.64 32.64 32.64 32.64 0 0 1-32.64 33.92zM400.64 192H121.6a32.64 32.64 0 0 1-32.64-32.64 32.64 32.64 0 0 1 32.64-32.64h279.04a32.64 32.64 0 0 1 32.64 32.64 32.64 32.64 0 0 1-32.64 32.64zM933.76 916.48h-279.04a32.64 32.64 0 0 1-32.64-32.64 32.64 32.64 0 0 1 32.64-32.64h279.04a32.64 32.64 0 0 1 32.64 32.64 32.64 32.64 0 0 1-32.64 32.64z"  /></svg>