<?xml version="1.0" standalone="no"?><!DOCTYPE svg PUBLIC "-//W3C//DTD SVG 1.1//EN" "http://www.w3.org/Graphics/SVG/1.1/DTD/svg11.dtd"><svg class="icon" width="200px" height="200.00px" viewBox="0 0 1024 1024" version="1.1" xmlns="http://www.w3.org/2000/svg"><path   d="M59.52 558.08a32 32 0 0 1-32-32 478.72 478.72 0 0 1 256-422.4 32 32 0 0 1 30.08 56.32 416 416 0 0 0-222.08 366.08 32 32 0 0 1-32 32zM965.76 558.08a32 32 0 0 1-32-32 416 416 0 0 0-218.88-366.08 31.36 31.36 0 0 1-10.88-42.88 32 32 0 0 1 43.52-13.44 478.72 478.72 0 0 1 252.8 422.4 32 32 0 0 1-34.56 32zM506.88 1013.12a483.84 483.84 0 0 1-334.08-133.12 32 32 0 0 1 0-45.44 31.36 31.36 0 0 1 44.8 0 422.4 422.4 0 0 0 595.2-14.08 32 32 0 1 1 46.08 44.8 483.2 483.2 0 0 1-352 147.84z"  /><path   d="M514.56 100.48m-92.16 0a92.16 92.16 0 1 0 184.32 0 92.16 92.16 0 1 0-184.32 0Z"  /><path   d="M102.4 694.4m-92.16 0a92.16 92.16 0 1 0 184.32 0 92.16 92.16 0 1 0-184.32 0Z"  /><path   d="M926.72 694.4m-92.16 0a92.16 92.16 0 1 0 184.32 0 92.16 92.16 0 1 0-184.32 0Z"  /></svg>