<?xml version="1.0" standalone="no"?><!DOCTYPE svg PUBLIC "-//W3C//DTD SVG 1.1//EN" "http://www.w3.org/Graphics/SVG/1.1/DTD/svg11.dtd"><svg class="icon" width="200px" height="200.00px" viewBox="0 0 1024 1024" version="1.1" xmlns="http://www.w3.org/2000/svg"><path   d="M939.52 279.68H84.48A73.6 73.6 0 0 1 11.52 206.08V128A72.96 72.96 0 0 1 84.48 54.4h855.04A72.96 72.96 0 0 1 1012.48 128v78.08a73.6 73.6 0 0 1-72.96 73.6zM84.48 120.96a6.4 6.4 0 0 0-6.4 6.4v78.72a5.76 5.76 0 0 0 6.4 6.4h855.04a5.76 5.76 0 0 0 6.4-6.4V128a6.4 6.4 0 0 0-6.4-6.4zM939.52 627.84H84.48A72.96 72.96 0 0 1 11.52 554.88V476.16A72.96 72.96 0 0 1 84.48 403.2h855.04a72.96 72.96 0 0 1 72.96 72.96v78.72a72.96 72.96 0 0 1-72.96 72.96zM84.48 469.76a6.4 6.4 0 0 0-6.4 6.4v78.72a5.76 5.76 0 0 0 6.4 6.4h855.04a5.76 5.76 0 0 0 6.4-6.4V476.16a6.4 6.4 0 0 0-6.4-6.4zM939.52 976.64H84.48a72.96 72.96 0 0 1-72.96-72.96v-78.72a73.6 73.6 0 0 1 72.96-73.6h855.04a73.6 73.6 0 0 1 72.96 73.6v78.72a72.96 72.96 0 0 1-72.96 72.96zM84.48 818.56a5.76 5.76 0 0 0-6.4 6.4v78.72a6.4 6.4 0 0 0 6.4 6.4h855.04a6.4 6.4 0 0 0 6.4-6.4v-78.72a5.76 5.76 0 0 0-6.4-6.4z"  /></svg>