<?xml version="1.0" standalone="no"?><!DOCTYPE svg PUBLIC "-//W3C//DTD SVG 1.1//EN" "http://www.w3.org/Graphics/SVG/1.1/DTD/svg11.dtd"><svg class="icon" width="200px" height="200.00px" viewBox="0 0 1024 1024" version="1.1" xmlns="http://www.w3.org/2000/svg"><path   d="M246.840947 512.466745m45.254834-45.254834l175.136208-175.136207q45.254834-45.254834 90.509668 0l175.136207 175.136207q45.254834 45.254834 0 90.509668l-175.136207 175.136208q-45.254834 45.254834-90.509668 0l-175.136208-175.136208q-45.254834-45.254834 0-90.509668Z"  /><path   d="M512 1013.12A500.48 500.48 0 1 1 1012.48 512 501.12 501.12 0 0 1 512 1013.12zM512 74.88A437.76 437.76 0 1 0 949.76 512 438.4 438.4 0 0 0 512 74.88z"  /></svg>