<?xml version="1.0" standalone="no"?><!DOCTYPE svg PUBLIC "-//W3C//DTD SVG 1.1//EN" "http://www.w3.org/Graphics/SVG/1.1/DTD/svg11.dtd"><svg class="icon" width="200px" height="200.00px" viewBox="0 0 1024 1024" version="1.1" xmlns="http://www.w3.org/2000/svg"><path   d="M924.8 947.2H99.2a96 96 0 0 1-95.36-96v-704A96 96 0 0 1 99.2 50.56h825.6a96 96 0 0 1 95.36 96v704a96 96 0 0 1-95.36 96.64z m-825.6-832a32 32 0 0 0-31.36 32v704a31.36 31.36 0 0 0 31.36 32h825.6a31.36 31.36 0 0 0 31.36-32v-704a32 32 0 0 0-31.36-32z"  /><path   d="M408.96 307.84a135.04 135.04 0 0 1 50.56 103.68h-64a90.88 90.88 0 0 0-33.92-60.16A115.84 115.84 0 0 0 288 332.8a139.52 139.52 0 0 0-64 12.16 50.56 50.56 0 0 0-27.52 47.36 51.2 51.2 0 0 0 32 45.44 458.88 458.88 0 0 0 74.24 26.24 627.2 627.2 0 0 1 112.64 42.24 103.04 103.04 0 0 1 55.04 92.8 106.24 106.24 0 0 1-44.8 90.24 212.48 212.48 0 0 1-128 32.64 210.56 210.56 0 0 1-122.88-31.36 149.76 149.76 0 0 1-58.24-119.04h64a104.96 104.96 0 0 0 35.84 72.96 128 128 0 0 0 80 19.84 161.28 161.28 0 0 0 77.44-16.64 50.56 50.56 0 0 0 28.8-45.44 64 64 0 0 0-40.96-56.32 759.04 759.04 0 0 0-85.12-28.8 832 832 0 0 1-98.56-35.84A92.8 92.8 0 0 1 128 395.52a103.04 103.04 0 0 1 47.36-88.96 197.12 197.12 0 0 1 113.28-30.72 192 192 0 0 1 120.32 32zM840.32 314.88A163.84 163.84 0 0 1 896 418.56h-64a105.6 105.6 0 0 0-40.96-64 138.24 138.24 0 0 0-77.44-20.48A120.32 120.32 0 0 0 610.56 384 192 192 0 0 0 576 499.84a192 192 0 0 0 32.64 119.04 128 128 0 0 0 106.24 45.44 122.24 122.24 0 0 0 79.36-24.32 128 128 0 0 0 45.44-75.52h64a192 192 0 0 1-64 117.12 184.32 184.32 0 0 1-119.04 39.68 192 192 0 0 1-158.72-64A240 240 0 0 1 512 499.84a240.64 240.64 0 0 1 48-156.16 188.16 188.16 0 0 1 156.16-67.84 192 192 0 0 1 124.16 39.04z"  /></svg>