<?xml version="1.0" standalone="no"?><!DOCTYPE svg PUBLIC "-//W3C//DTD SVG 1.1//EN" "http://www.w3.org/Graphics/SVG/1.1/DTD/svg11.dtd"><svg class="icon" width="200px" height="200.00px" viewBox="0 0 1024 1024" version="1.1" xmlns="http://www.w3.org/2000/svg"><path   d="M912 19.84H340.48a96 96 0 0 0-96 96v83.2h64v-83.2a32 32 0 0 1 32-32h571.52a32 32 0 0 1 32 32V768a31.36 31.36 0 0 1-32 31.36h-164.48v64h164.48a96 96 0 0 0 96-95.36V115.84a96 96 0 0 0-96-96z"  /><path   d="M683.52 1009.28H112a96 96 0 0 1-96-96V263.04a96 96 0 0 1 96-96h571.52a96 96 0 0 1 96 96v650.24a96 96 0 0 1-96 96zM112 231.04a32 32 0 0 0-32 32v650.24a32 32 0 0 0 32 32h571.52a32 32 0 0 0 32-32V263.04a32 32 0 0 0-32-32z"  /><path   d="M603.52 620.16H192a32 32 0 0 1 0-64h411.52a32 32 0 0 1 0 64z"  /><path   d="M397.44 826.24a32 32 0 0 1-32-32V384a32 32 0 0 1 32-32 32 32 0 0 1 32 32v412.16a32 32 0 0 1-32 30.08z"  /></svg>