<svg width="128" height="128" viewBox="0 0 1024 1024" xmlns="http://www.w3.org/2000/svg"><path d="M339.84 467.84h-192A119.68 119.68 0 0 1 29.44 348.16v-192A119.68 119.68 0 0 1 149.12 37.76h192a120.32 120.32 0 0 1 119.04 119.68v192a120.32 120.32 0 0 1-120.32 118.4z m-192-350.08a39.68 39.68 0 0 0-39.68 39.68v192a39.68 39.68 0 0 0 39.68 39.68h192a40.32 40.32 0 0 0 40.32-39.68v-192a40.32 40.32 0 0 0-40.32-39.68zM339.84 986.24h-192a119.68 119.68 0 0 1-118.4-119.68v-192a119.68 119.68 0 0 1 119.68-118.4h192a120.32 120.32 0 0 1 120.32 119.68v192a120.32 120.32 0 0 1-121.6 118.4z m-192-350.08a39.68 39.68 0 0 0-39.68 39.68v192a39.68 39.68 0 0 0 39.68 39.68h192a40.32 40.32 0 0 0 40.32-39.68v-192a40.32 40.32 0 0 0-40.32-39.68zM874.24 467.84h-192A120.32 120.32 0 0 1 563.2 348.16v-192A120.32 120.32 0 0 1 683.52 37.76h192a119.68 119.68 0 0 1 119.68 119.68v192a119.68 119.68 0 0 1-120.96 118.4z m-192-350.08a39.68 39.68 0 0 0-39.68 39.68v192a39.68 39.68 0 0 0 39.68 39.68h192a39.68 39.68 0 0 0 39.68-39.68v-192a39.68 39.68 0 0 0-39.68-39.68zM964.48 661.76H616.96a30.08 30.08 0 0 1 0-60.16h347.52a30.08 30.08 0 0 1 0 60.16zM964.48 789.76H616.96a30.08 30.08 0 0 1 0-60.16h347.52a30.08 30.08 0 0 1 0 60.16zM964.48 917.12H616.96a30.08 30.08 0 0 1 0-60.16h347.52a30.08 30.08 0 0 1 0 60.16z"  /><path   d="M899.2 695.04a30.08 30.08 0 0 1-30.08-30.08v-64a30.08 30.08 0 1 1 60.16 0v64a30.08 30.08 0 0 1-30.08 30.08zM687.36 823.04a30.08 30.08 0 0 1-30.08-30.08v-64a30.08 30.08 0 0 1 60.16 0v64a30.08 30.08 0 0 1-30.08 30.08zM899.2 950.4a30.08 30.08 0 0 1-30.08-30.08v-64a30.08 30.08 0 1 1 60.16 0v64a30.08 30.08 0 0 1-30.08 30.08z"  /></svg>