<?xml version="1.0" standalone="no"?><!DOCTYPE svg PUBLIC "-//W3C//DTD SVG 1.1//EN" "http://www.w3.org/Graphics/SVG/1.1/DTD/svg11.dtd"><svg class="icon" width="200px" height="200.00px" viewBox="0 0 1024 1024" version="1.1" xmlns="http://www.w3.org/2000/svg"><path   d="M177.28 731.52h-64A99.2 99.2 0 0 1 12.16 632.32V167.04a99.2 99.2 0 0 1 99.2-99.2h608.64a99.84 99.84 0 0 1 99.84 99.2v96.64a32.64 32.64 0 0 1-32 32 32 32 0 0 1-32-32V167.04a35.84 35.84 0 0 0-35.84-35.2H111.36a35.2 35.2 0 0 0-35.2 35.2v465.28a35.2 35.2 0 0 0 35.2 35.2h64a32 32 0 0 1 32 32 32.64 32.64 0 0 1-30.08 32z"  /><path   d="M773.12 226.56H52.48a32 32 0 0 1 0-64h720.64a32 32 0 0 1 0 64zM539.52 863.36a30.08 30.08 0 0 1-22.4-9.6l-172.8-172.16a32 32 0 0 1 0-44.8 32 32 0 0 1 45.44 0l149.76 149.12L817.28 512a30.72 30.72 0 0 1 44.8 0 32 32 0 0 1 0 45.44l-300.16 296.32a30.08 30.08 0 0 1-22.4 9.6z"  /><path   d="M912.64 973.44H304a99.2 99.2 0 0 1-99.84-99.2V408.96a99.84 99.84 0 0 1 99.84-99.2h608.64a99.2 99.2 0 0 1 99.2 99.2v465.28a98.56 98.56 0 0 1-99.2 99.2zM304 373.76a35.84 35.84 0 0 0-35.84 35.2v465.28a35.84 35.84 0 0 0 35.84 35.2h608.64a35.2 35.2 0 0 0 35.2-35.2V408.96a35.2 35.2 0 0 0-35.2-35.2z"  /><path   d="M970.24 478.72H236.16a32.64 32.64 0 0 1-32-32 32 32 0 0 1 32-32h734.08a32 32 0 0 1 32 32 32 32 0 0 1-32 32z"  /></svg>