<?xml version="1.0" standalone="no"?><!DOCTYPE svg PUBLIC "-//W3C//DTD SVG 1.1//EN" "http://www.w3.org/Graphics/SVG/1.1/DTD/svg11.dtd"><svg class="icon" width="200px" height="200.00px" viewBox="0 0 1024 1024" version="1.1" xmlns="http://www.w3.org/2000/svg"><path   d="M659.84 839.68A32 32 0 0 1 640 832L341.12 534.4A33.28 33.28 0 0 1 332.16 512a32 32 0 0 1 8.96-22.4L640 192a32 32 0 1 1 45.44 45.44L408.96 512l273.92 273.92a32 32 0 0 1 0 44.8 32.64 32.64 0 0 1-23.04 8.96z"  /><path   d="M512 1004.8A493.44 493.44 0 1 1 1005.44 512 494.08 494.08 0 0 1 512 1004.8zM512 81.92A429.44 429.44 0 1 0 941.44 512 430.08 430.08 0 0 0 512 81.92z"  /></svg>