<?xml version="1.0" standalone="no"?><!DOCTYPE svg PUBLIC "-//W3C//DTD SVG 1.1//EN" "http://www.w3.org/Graphics/SVG/1.1/DTD/svg11.dtd"><svg class="icon" width="200px" height="200.00px" viewBox="0 0 1024 1024" version="1.1" xmlns="http://www.w3.org/2000/svg"><path   d="M358.4 160.64h175.36a300.8 300.8 0 1 1 0 600.96h-49.92v101.76a35.2 35.2 0 0 1-57.6 26.88l-184.96-151.68a33.92 33.92 0 0 1-12.8-26.88 35.2 35.2 0 0 1 12.8-27.52l184.96-151.04a33.92 33.92 0 0 1 37.12-4.48 35.2 35.2 0 0 1 20.48 31.36v101.76h49.92a200.96 200.96 0 1 0 0-401.28H308.48A24.96 24.96 0 0 1 290.56 256a28.16 28.16 0 0 1-7.68-17.92V185.6a25.6 25.6 0 0 1 7.68-17.92 24.96 24.96 0 0 1 17.92-7.04zM59.52 1012.48a32 32 0 0 1-32-32V43.52a32 32 0 0 1 32-32 32 32 0 0 1 32 32v936.96a32 32 0 0 1-32 32zM964.48 1012.48a32 32 0 0 1-32-32V43.52a32 32 0 1 1 64 0v936.96a32 32 0 0 1-32 32z"  /></svg>