<?xml version="1.0" standalone="no"?><!DOCTYPE svg PUBLIC "-//W3C//DTD SVG 1.1//EN" "http://www.w3.org/Graphics/SVG/1.1/DTD/svg11.dtd"><svg class="icon" width="200px" height="200.00px" viewBox="0 0 1024 1024" version="1.1" xmlns="http://www.w3.org/2000/svg"><path   d="M920.32 942.08H103.68a96 96 0 0 1-96-96V181.76a96 96 0 0 1 96-96h816.64a96 96 0 0 1 96 96v664.32a96 96 0 0 1-96 96zM103.68 149.76a32 32 0 0 0-32 32v664.32a32 32 0 0 0 32 32h816.64a32 32 0 0 0 32-32V181.76a32 32 0 0 0-32-32z"  /><path   d="M293.12 551.04m61.44 0l73.6 0q61.44 0 61.44 61.44l0 0q0 61.44-61.44 61.44l-73.6 0q-61.44 0-61.44-61.44l0 0q0-61.44 61.44-61.44Z"  /><path   d="M518.4 551.04m61.44 0l73.6 0q61.44 0 61.44 61.44l0 0q0 61.44-61.44 61.44l-73.6 0q-61.44 0-61.44-61.44l0 0q0-61.44 61.44-61.44Z"  /><path   d="M743.04 551.04m61.44 0l73.6 0q61.44 0 61.44 61.44l0 0q0 61.44-61.44 61.44l-73.6 0q-61.44 0-61.44-61.44l0 0q0-61.44 61.44-61.44Z"  /><path   d="M245.76 919.68a32 32 0 0 1-32-32v-768a32 32 0 0 1 32-32 32.64 32.64 0 0 1 32 32v768a32 32 0 0 1-32 32z"  /><path   d="M979.84 545.92H256a32 32 0 1 1 0-64h723.84a32 32 0 0 1 0 64zM981.76 332.8H256a32 32 0 1 1 0-64h725.76a32 32 0 0 1 0 64zM981.76 743.04H256a32 32 0 0 1 0-64h725.76a32 32 0 0 1 0 64z"  /></svg>