<?xml version="1.0" standalone="no"?><!DOCTYPE svg PUBLIC "-//W3C//DTD SVG 1.1//EN" "http://www.w3.org/Graphics/SVG/1.1/DTD/svg11.dtd"><svg class="icon" width="200px" height="200.00px" viewBox="0 0 1024 1024" version="1.1" xmlns="http://www.w3.org/2000/svg"><path   d="M861.44 1015.04H162.56A101.76 101.76 0 0 1 64 913.28V120.96A101.76 101.76 0 0 1 162.56 19.2h698.88a101.76 101.76 0 0 1 101.76 101.76v792.32a101.76 101.76 0 0 1-101.76 101.76zM162.56 95.36a25.6 25.6 0 0 0-26.24 25.6v792.32a26.24 26.24 0 0 0 26.24 26.24h698.88a26.24 26.24 0 0 0 26.24-26.24V120.96a25.6 25.6 0 0 0-26.24-25.6z"  /><path   d="M750.08 282.24H262.4a37.76 37.76 0 0 1 0-75.52h487.68a37.76 37.76 0 0 1 0 75.52zM576 415.36H262.4a37.76 37.76 0 0 1 0-75.52H576a37.76 37.76 0 1 1 0 75.52zM407.68 540.8H262.4a32 32 0 1 1 0-64h145.28a32 32 0 1 1 0 64zM652.16 896a192 192 0 1 1 192-192 192 192 0 0 1-192 192z m0-332.16A142.08 142.08 0 1 0 794.24 704a142.08 142.08 0 0 0-142.08-142.08z"  /><path   d="M652.16 704L579.2 630.4a19.84 19.84 0 1 1 28.8-28.16l44.16 44.16 44.8-45.44a19.84 19.84 0 0 1 28.16 0 19.84 19.84 0 0 1 0 28.8z"  /><path   d="M652.16 832a19.84 19.84 0 0 1-19.84-19.84v-134.4a20.48 20.48 0 0 1 40.32 0v134.4a19.84 19.84 0 0 1-20.48 19.84z"  /><path   d="M711.04 722.56H593.28A20.48 20.48 0 0 1 576 704a19.84 19.84 0 0 1 19.84-19.84h117.76a19.84 19.84 0 0 1 20.48 19.84 20.48 20.48 0 0 1-23.04 18.56zM711.04 772.48H593.28a20.48 20.48 0 0 1 0-40.32h117.76a20.48 20.48 0 1 1 0 40.32z"  /></svg>