<?xml version="1.0" standalone="no"?><!DOCTYPE svg PUBLIC "-//W3C//DTD SVG 1.1//EN" "http://www.w3.org/Graphics/SVG/1.1/DTD/svg11.dtd"><svg class="icon" width="200px" height="200.00px" viewBox="0 0 1024 1024" version="1.1" xmlns="http://www.w3.org/2000/svg"><path   d="M822.4 1016.32H196.48a83.2 83.2 0 0 1-83.2-83.2V467.2A83.2 83.2 0 0 1 196.48 384h625.92a83.2 83.2 0 0 1 83.2 83.2v465.92a83.2 83.2 0 0 1-83.2 83.2zM196.48 448a19.2 19.2 0 0 0-19.2 19.2v465.92a19.2 19.2 0 0 0 19.2 19.2h625.92a18.56 18.56 0 0 0 19.2-19.2V467.2a18.56 18.56 0 0 0-19.2-19.2z"  /><path   d="M285.44 441.6A32.64 32.64 0 0 1 256 409.6V259.84a252.8 252.8 0 0 1 504.96 0 32 32 0 0 1-32 32 32 32 0 0 1-32-32 188.8 188.8 0 0 0-376.96 0V409.6a32 32 0 0 1-34.56 32z"  /><path   d="M508.8 662.4m-88.96 0a88.96 88.96 0 1 0 177.92 0 88.96 88.96 0 1 0-177.92 0Z"  /><path   d="M512 855.04a32 32 0 0 1-32-32v-111.36a32 32 0 1 1 64 0v111.36a32 32 0 0 1-32 32z"  /></svg>