<?xml version="1.0" standalone="no"?><!DOCTYPE svg PUBLIC "-//W3C//DTD SVG 1.1//EN" "http://www.w3.org/Graphics/SVG/1.1/DTD/svg11.dtd"><svg class="icon" width="200px" height="200.00px" viewBox="0 0 1024 1024" version="1.1" xmlns="http://www.w3.org/2000/svg"><path   d="M505.6 1016.96a31.36 31.36 0 0 1-24.32-10.88l-101.76-117.76H115.2a92.8 92.8 0 0 1-92.8-92.16V99.2A92.8 92.8 0 0 1 115.2 7.04h793.6a92.8 92.8 0 0 1 92.8 92.16v696.96a92.8 92.8 0 0 1-92.8 92.16H631.68l-101.76 117.76a33.28 33.28 0 0 1-24.32 10.88zM115.2 71.04a28.8 28.8 0 0 0-28.8 28.16v696.96a28.8 28.8 0 0 0 28.8 28.16h279.04a33.92 33.92 0 0 1 24.32 11.52l87.04 100.48 87.68-101.12a31.36 31.36 0 0 1 24.32-10.88h291.2a28.8 28.8 0 0 0 28.8-28.16V99.2a28.8 28.8 0 0 0-28.8-28.16z"  /><path   d="M241.92 468.48m-63.36 0a63.36 63.36 0 1 0 126.72 0 63.36 63.36 0 1 0-126.72 0Z"  /><path   d="M512 468.48m-63.36 0a63.36 63.36 0 1 0 126.72 0 63.36 63.36 0 1 0-126.72 0Z"  /><path   d="M782.08 468.48m-63.36 0a63.36 63.36 0 1 0 126.72 0 63.36 63.36 0 1 0-126.72 0Z"  /></svg>