<?xml version="1.0" standalone="no"?><!DOCTYPE svg PUBLIC "-//W3C//DTD SVG 1.1//EN" "http://www.w3.org/Graphics/SVG/1.1/DTD/svg11.dtd"><svg class="icon" width="200px" height="200.00px" viewBox="0 0 1024 1024" version="1.1" xmlns="http://www.w3.org/2000/svg"><path   d="M289.28 320a32 32 0 0 1-22.4-8.96L64 106.88A32 32 0 0 1 64 64a32.64 32.64 0 0 1 45.44 0l204.8 205.44a32 32 0 0 1-24.96 50.56z"  /><path   d="M42.88 284.8A32 32 0 0 1 10.88 256V42.24a32 32 0 0 1 32-32h207.36a32.64 32.64 0 0 1 32 32 32 32 0 0 1-32 32H74.88V256a32 32 0 0 1-32 28.8zM734.72 320a32 32 0 0 0 22.4-8.96L960 106.88A32 32 0 0 0 960 64a32.64 32.64 0 0 0-45.44 0l-204.8 205.44a32 32 0 0 0 22.4 54.4z"  /><path   d="M981.12 284.8a32 32 0 0 1-32-32V74.24h-175.36a32 32 0 0 1-32-32 32.64 32.64 0 0 1 32-32h207.36a32 32 0 0 1 32 32V256a32 32 0 0 1-32 28.8zM289.28 704a30.08 30.08 0 0 0-22.4 9.6L64 916.48a32 32 0 1 0 45.44 45.44l204.8-205.44a30.72 30.72 0 0 0 0-44.8 30.08 30.08 0 0 0-24.96-7.68z"  /><path   d="M250.24 1013.12H42.88a32 32 0 0 1-32-32V768a32 32 0 0 1 64 0v178.56h175.36a32 32 0 1 1 0 64zM734.72 704a30.08 30.08 0 0 1 22.4 9.6L960 916.48a32 32 0 0 1-45.44 45.44l-204.8-205.44a30.72 30.72 0 0 1 0-44.8 30.08 30.08 0 0 1 24.96-7.68z"  /><path   d="M981.12 1013.12h-207.36a32 32 0 0 1 0-64h175.36V768a32 32 0 0 1 64 0v210.56a32 32 0 0 1-32 34.56z"  /></svg>