<?xml version="1.0" standalone="no"?><!DOCTYPE svg PUBLIC "-//W3C//DTD SVG 1.1//EN" "http://www.w3.org/Graphics/SVG/1.1/DTD/svg11.dtd"><svg class="icon" width="200px" height="200.00px" viewBox="0 0 1024 1024" version="1.1" xmlns="http://www.w3.org/2000/svg"><path   d="M250.24 337.92h-128a89.6 89.6 0 0 1-89.6-89.6v-128A90.24 90.24 0 0 1 120.96 28.8h128a90.24 90.24 0 0 1 89.6 90.24v128a89.6 89.6 0 0 1-88.32 90.88z m-128-248.96a30.08 30.08 0 0 0-30.08 30.08v128a30.08 30.08 0 0 0 30.08 29.44h128a30.08 30.08 0 0 0 30.08-29.44v-128a30.08 30.08 0 0 0-30.08-30.08zM576 337.92H448a89.6 89.6 0 0 1-89.6-89.6v-128A90.24 90.24 0 0 1 448 28.8h128a90.24 90.24 0 0 1 89.6 90.24v128A89.6 89.6 0 0 1 576 337.92zM448 88.96a30.08 30.08 0 0 0-30.08 30.08v128a30.08 30.08 0 0 0 30.08 30.72h128a30.08 30.08 0 0 0 30.08-29.44v-128A30.08 30.08 0 0 0 576 88.96zM903.04 337.92h-128a89.6 89.6 0 0 1-89.6-89.6v-128A90.24 90.24 0 0 1 773.76 28.8h128a90.24 90.24 0 0 1 89.6 90.24v128a89.6 89.6 0 0 1-88.32 90.88z m-128-248.96a30.08 30.08 0 0 0-30.08 30.08v128a30.08 30.08 0 0 0 30.08 29.44h128a30.08 30.08 0 0 0 30.08-29.44v-128a30.08 30.08 0 0 0-30.08-30.08zM250.24 668.16h-128A89.6 89.6 0 0 1 31.36 576V448a90.24 90.24 0 0 1 89.6-90.24h128A90.24 90.24 0 0 1 339.84 448v128a89.6 89.6 0 0 1-89.6 92.16z m-128-248.96a30.08 30.08 0 0 0-31.36 28.8v128a29.44 29.44 0 0 0 30.08 29.44h128A29.44 29.44 0 0 0 280.32 576V448a30.08 30.08 0 0 0-30.08-30.08zM576 668.16H448A89.6 89.6 0 0 1 357.76 576V448A90.24 90.24 0 0 1 448 359.04h128A90.24 90.24 0 0 1 666.24 448v128A89.6 89.6 0 0 1 576 668.16zM448 419.2a30.08 30.08 0 0 0-30.72 28.8v128a29.44 29.44 0 0 0 30.72 32h128a29.44 29.44 0 0 0 30.72-32V448A30.08 30.08 0 0 0 576 419.2zM903.04 668.16h-128A89.6 89.6 0 0 1 684.16 576V448a90.24 90.24 0 0 1 89.6-90.24h128A90.24 90.24 0 0 1 992.64 448v128a89.6 89.6 0 0 1-89.6 92.16z m-128-248.96a30.08 30.08 0 0 0-30.08 30.08V576a29.44 29.44 0 0 0 30.08 29.44h128a29.44 29.44 0 0 0 30.08-29.44V448a30.08 30.08 0 0 0-30.08-30.08zM250.24 998.4h-128a89.6 89.6 0 0 1-89.6-89.6v-128a90.24 90.24 0 0 1 89.6-90.24h128a90.24 90.24 0 0 1 89.6 90.24v128a89.6 89.6 0 0 1-89.6 89.6z m-128-248.96a30.08 30.08 0 0 0-30.08 30.08v128a30.08 30.08 0 0 0 30.08 29.44h128a30.08 30.08 0 0 0 30.08-29.44v-128a30.08 30.08 0 0 0-30.08-30.08zM576 998.4H448a89.6 89.6 0 0 1-89.6-89.6v-128A90.24 90.24 0 0 1 448 689.28h128a90.24 90.24 0 0 1 89.6 90.24v128A89.6 89.6 0 0 1 576 998.4z m-128-248.96a30.08 30.08 0 0 0-30.08 30.08v128a30.08 30.08 0 0 0 30.08 29.44h128a30.08 30.08 0 0 0 30.08-29.44v-128a30.08 30.08 0 0 0-30.08-30.08zM903.04 998.4h-128a89.6 89.6 0 0 1-89.6-89.6v-128a90.24 90.24 0 0 1 89.6-90.24h128a90.24 90.24 0 0 1 89.6 90.24v128a89.6 89.6 0 0 1-89.6 89.6z m-128-248.96a30.08 30.08 0 0 0-30.08 30.08v128a30.08 30.08 0 0 0 30.08 29.44h128a30.08 30.08 0 0 0 30.08-29.44v-128a30.08 30.08 0 0 0-30.08-30.08z"  /></svg>