<?xml version="1.0" standalone="no"?><!DOCTYPE svg PUBLIC "-//W3C//DTD SVG 1.1//EN" "http://www.w3.org/Graphics/SVG/1.1/DTD/svg11.dtd"><svg class="icon" width="200px" height="200.00px" viewBox="0 0 1024 1024" version="1.1" xmlns="http://www.w3.org/2000/svg"><path   d="M953.6 417.92a39.04 39.04 0 0 1-25.6-10.24L598.4 94.72a37.76 37.76 0 0 1 0-53.12 37.12 37.12 0 0 1 53.12 0l329.6 312.32a38.4 38.4 0 0 1 0 53.12 36.48 36.48 0 0 1-27.52 10.88z"  /><path   d="M632.96 426.24a38.4 38.4 0 0 1-26.24-10.88 37.76 37.76 0 0 1 0-53.12L918.4 33.28a37.76 37.76 0 0 1 53.12 0 37.76 37.76 0 0 1 0 53.12l-311.68 327.68a35.2 35.2 0 0 1-26.88 12.16z"  /><path   d="M878.72 1002.24h-768a103.68 103.68 0 0 1-100.48-103.04V134.4A103.68 103.68 0 0 1 113.92 30.72h384a28.8 28.8 0 0 1 0 56.96h-384a46.72 46.72 0 0 0-46.08 46.72v768a46.08 46.08 0 0 0 46.08 46.08h768a46.72 46.72 0 0 0 46.72-46.08v-384a28.8 28.8 0 1 1 56.96 0v384a103.68 103.68 0 0 1-106.88 99.84z"  /></svg>