<?xml version="1.0" standalone="no"?><!DOCTYPE svg PUBLIC "-//W3C//DTD SVG 1.1//EN" "http://www.w3.org/Graphics/SVG/1.1/DTD/svg11.dtd"><svg class="icon" width="200px" height="200.00px" viewBox="0 0 1024 1024" version="1.1" xmlns="http://www.w3.org/2000/svg"><path   d="M560.64 301.44H463.36a96 96 0 0 1-96-96V108.16a96 96 0 0 1 96-96h97.28a96 96 0 0 1 96 96v97.28a96 96 0 0 1-96 96zM463.36 76.16a32 32 0 0 0-32 32v97.28a32 32 0 0 0 32 32h97.28a32 32 0 0 0 32-32V108.16a32 32 0 0 0-32-32zM919.68 1014.4h-97.28a96 96 0 0 1-96-95.36v-97.92a96 96 0 0 1 96-96h97.28a96 96 0 0 1 96 96v97.92a96 96 0 0 1-96 95.36z m-97.28-225.28a32 32 0 0 0-32 32v97.92a31.36 31.36 0 0 0 32 31.36h97.28a31.36 31.36 0 0 0 32-31.36v-97.92a32 32 0 0 0-32-32zM560.64 1014.4H463.36a96 96 0 0 1-96-95.36v-97.92a96 96 0 0 1 96-96h97.28a96 96 0 0 1 96 96v97.92a96 96 0 0 1-96 95.36z m-97.28-225.28a32 32 0 0 0-32 32v97.92a31.36 31.36 0 0 0 32 31.36h97.28a31.36 31.36 0 0 0 32-31.36v-97.92a32 32 0 0 0-32-32zM201.6 1014.4H104.32a96 96 0 0 1-96-95.36v-97.92a96 96 0 0 1 96-96h97.28a96 96 0 0 1 96 96v97.92a96 96 0 0 1-96 95.36z m-97.28-225.28a32 32 0 0 0-32 32v97.92a31.36 31.36 0 0 0 32 31.36h97.28a31.36 31.36 0 0 0 32-31.36v-97.92a32 32 0 0 0-32-32zM871.04 704a32 32 0 0 1-32-32V508.16H174.72v163.84a32 32 0 0 1-32 32 32 32 0 0 1-32-32V476.16a32 32 0 0 1 32-32h728.32a32 32 0 0 1 32 32v195.84a32 32 0 0 1-32 32z"  /><path   d="M506.88 695.04a32 32 0 0 1-32-32V346.24a32 32 0 0 1 32-32 32 32 0 0 1 32 32v316.8a32 32 0 0 1-32 32z"  /></svg>