<?xml version="1.0" standalone="no"?><!DOCTYPE svg PUBLIC "-//W3C//DTD SVG 1.1//EN" "http://www.w3.org/Graphics/SVG/1.1/DTD/svg11.dtd"><svg class="icon" width="200px" height="200.00px" viewBox="0 0 1024 1024" version="1.1" xmlns="http://www.w3.org/2000/svg"><path   d="M922.88 928H227.2A94.72 94.72 0 0 1 132.48 832V542.72A30.72 30.72 0 0 1 163.2 512a31.36 31.36 0 0 1 28.8 30.72V832a32.64 32.64 0 0 0 32.64 32h698.24a32 32 0 0 0 32-32V481.92l-192-192H430.72a31.36 31.36 0 1 1 0-64h347.52a32.64 32.64 0 0 1 22.4 9.6L1008.64 448a30.72 30.72 0 0 1 8.96 21.76V832a94.72 94.72 0 0 1-94.72 96z"  /><path   d="M965.76 536.32h-221.44a31.36 31.36 0 0 1-31.36-31.36v-236.8a31.36 31.36 0 1 1 64 0V473.6h192a31.36 31.36 0 1 1 0 64zM288.64 291.2H38.4a31.36 31.36 0 0 1 0-64h250.24a31.36 31.36 0 0 1 0 64z"  /><path   d="M163.2 416.64A30.72 30.72 0 0 1 132.48 384V135.04a30.72 30.72 0 0 1 30.72-31.36 31.36 31.36 0 0 1 28.8 31.36V384a31.36 31.36 0 0 1-28.8 32.64z"  /></svg>