<?xml version="1.0" standalone="no"?><!DOCTYPE svg PUBLIC "-//W3C//DTD SVG 1.1//EN" "http://www.w3.org/Graphics/SVG/1.1/DTD/svg11.dtd"><svg class="icon" width="200px" height="200.00px" viewBox="0 0 1024 1024" version="1.1" xmlns="http://www.w3.org/2000/svg"><path   d="M920.96 1017.6H100.48a97.28 97.28 0 0 1-96.64-96.64V99.84A97.28 97.28 0 0 1 100.48 3.2h820.48a96.64 96.64 0 0 1 96.64 96.64v821.12a96.64 96.64 0 0 1-96.64 96.64zM100.48 67.84a32.64 32.64 0 0 0-32 32v821.12a32.64 32.64 0 0 0 32 32h820.48a32.64 32.64 0 0 0 32.64-32V99.84a32.64 32.64 0 0 0-32.64-32z"  /><path   d="M970.88 356.48H42.24a32.64 32.64 0 0 1 0-64h928.64a32.64 32.64 0 0 1 0 64z"  /><path   d="M334.72 1005.44a32 32 0 0 1-32-32.64V323.84a32 32 0 1 1 64 0V972.8a32 32 0 0 1-32 32.64z"  /></svg>