<?xml version="1.0" standalone="no"?><!DOCTYPE svg PUBLIC "-//W3C//DTD SVG 1.1//EN" "http://www.w3.org/Graphics/SVG/1.1/DTD/svg11.dtd"><svg class="icon" width="200px" height="200.00px" viewBox="0 0 1024 1024" version="1.1" xmlns="http://www.w3.org/2000/svg"><path   d="M361.6 844.16a34.56 34.56 0 0 1-23.04-8.96 32.64 32.64 0 0 1 0-46.08L616.32 512 338.56 234.24A32.64 32.64 0 0 1 384 188.16l300.8 300.16a32.64 32.64 0 0 1 9.6 23.04 30.72 30.72 0 0 1-9.6 23.04L384 835.2a34.56 34.56 0 0 1-22.4 8.96z"  /><path   d="M512 1011.84A500.48 500.48 0 1 1 1012.48 512 500.48 500.48 0 0 1 512 1011.84zM512 76.16A435.84 435.84 0 1 0 947.2 512 435.84 435.84 0 0 0 512 76.16z"  /></svg>