<?xml version="1.0" standalone="no"?><!DOCTYPE svg PUBLIC "-//W3C//DTD SVG 1.1//EN" "http://www.w3.org/Graphics/SVG/1.1/DTD/svg11.dtd"><svg class="icon" width="200px" height="200.00px" viewBox="0 0 1024 1024" version="1.1" xmlns="http://www.w3.org/2000/svg"><path   d="M960 967.04h-64V312.96a17.92 17.92 0 0 0-17.28-17.92H640v-64h236.16A81.92 81.92 0 0 1 960 312.96z"  /><path   d="M674.56 978.56h-64V104.96A32.64 32.64 0 0 0 576 71.68H161.28a33.28 33.28 0 0 0-33.28 33.28v873.6H64V104.96A97.28 97.28 0 0 1 161.28 7.68H576a97.28 97.28 0 0 1 96.64 97.28z"  /><path   d="M0 941.44m37.76 0l948.48 0q37.76 0 37.76 37.76l0-0.64q0 37.76-37.76 37.76l-948.48 0q-37.76 0-37.76-37.76l0 0.64q0-37.76 37.76-37.76Z"  /><path   d="M740.48 431.36m37.76 0l14.72 0q37.76 0 37.76 37.76l0 85.12q0 37.76-37.76 37.76l-14.72 0q-37.76 0-37.76-37.76l0-85.12q0-37.76 37.76-37.76Z"  /><path   d="M740.48 657.92m37.76 0l14.72 0q37.76 0 37.76 37.76l0 85.12q0 37.76-37.76 37.76l-14.72 0q-37.76 0-37.76-37.76l0-85.12q0-37.76 37.76-37.76Z"  /><path   d="M234.24 254.08m34.56 0l21.12 0q34.56 0 34.56 34.56l0 64.64q0 34.56-34.56 34.56l-21.12 0q-34.56 0-34.56-34.56l0-64.64q0-34.56 34.56-34.56Z"  /><path   d="M414.08 254.08m34.56 0l21.12 0q34.56 0 34.56 34.56l0 64.64q0 34.56-34.56 34.56l-21.12 0q-34.56 0-34.56-34.56l0-64.64q0-34.56 34.56-34.56Z"  /><path   d="M234.24 442.24m34.56 0l21.12 0q34.56 0 34.56 34.56l0 64.64q0 34.56-34.56 34.56l-21.12 0q-34.56 0-34.56-34.56l0-64.64q0-34.56 34.56-34.56Z"  /><path   d="M414.08 442.24m34.56 0l21.12 0q34.56 0 34.56 34.56l0 64.64q0 34.56-34.56 34.56l-21.12 0q-34.56 0-34.56-34.56l0-64.64q0-34.56 34.56-34.56Z"  /><path   d="M234.24 631.04m34.56 0l21.12 0q34.56 0 34.56 34.56l0 64.64q0 34.56-34.56 34.56l-21.12 0q-34.56 0-34.56-34.56l0-64.64q0-34.56 34.56-34.56Z"  /><path   d="M414.08 631.04m34.56 0l21.12 0q34.56 0 34.56 34.56l0 64.64q0 34.56-34.56 34.56l-21.12 0q-34.56 0-34.56-34.56l0-64.64q0-34.56 34.56-34.56Z"  /></svg>