<?xml version="1.0" standalone="no"?><!DOCTYPE svg PUBLIC "-//W3C//DTD SVG 1.1//EN" "http://www.w3.org/Graphics/SVG/1.1/DTD/svg11.dtd"><svg class="icon" width="200px" height="200.00px" viewBox="0 0 1024 1024" version="1.1" xmlns="http://www.w3.org/2000/svg"><path   d="M881.92 1018.24H142.08a94.08 94.08 0 0 1-93.44-93.44V184.96a94.08 94.08 0 0 1 93.44-93.44h739.84a94.08 94.08 0 0 1 93.44 93.44v739.84a94.08 94.08 0 0 1-93.44 93.44zM142.08 150.4a34.56 34.56 0 0 0-34.56 34.56v739.84a34.56 34.56 0 0 0 34.56 34.56h739.84a34.56 34.56 0 0 0 34.56-34.56V184.96a34.56 34.56 0 0 0-34.56-34.56z"  /><path   d="M934.4 315.52H89.6a29.44 29.44 0 0 1-29.44-29.44A28.8 28.8 0 0 1 89.6 256h844.8a28.8 28.8 0 0 1 29.44 29.44 29.44 29.44 0 0 1-29.44 30.08z"  /><path   d="M341.12 268.16a29.44 29.44 0 0 1-29.44-29.44V33.92a29.44 29.44 0 0 1 29.44-29.44 28.8 28.8 0 0 1 29.44 29.44v204.8a28.8 28.8 0 0 1-29.44 29.44zM682.24 268.16a29.44 29.44 0 0 1-29.44-29.44V33.92a29.44 29.44 0 0 1 29.44-29.44 28.8 28.8 0 0 1 29.44 29.44v204.8a28.8 28.8 0 0 1-29.44 29.44zM320 737.28a58.88 58.88 0 0 0 51.84 64c33.28 0 51.2-24.32 54.4-64s-35.2-69.76-101.12-67.84v-58.88c68.48 0 102.4-23.68 101.12-64s-19.2-55.04-51.84-56.96a58.88 58.88 0 0 0-49.28 56.96H232.96c5.12-75.52 51.84-114.56 141.44-117.76 87.68 7.68 135.04 42.88 140.8 105.6A97.28 97.28 0 0 1 435.2 636.16a106.24 106.24 0 0 1 82.56 113.28c-7.68 64-56.96 101.76-147.84 108.16s-141.44-40.32-141.44-120.32zM604.8 497.28a692.48 692.48 0 0 0 106.24-60.8h84.48v416H704V525.44a413.44 413.44 0 0 1-99.2 54.4z"  /></svg>