<?xml version="1.0" standalone="no"?><!DOCTYPE svg PUBLIC "-//W3C//DTD SVG 1.1//EN" "http://www.w3.org/Graphics/SVG/1.1/DTD/svg11.dtd"><svg class="icon" width="200px" height="200.00px" viewBox="0 0 1024 1024" version="1.1" xmlns="http://www.w3.org/2000/svg"><path   d="M865.92 707.84H522.88a32 32 0 0 1-32-32 32 32 0 0 1 32-32h343.04a32 32 0 0 1 32 32 32.64 32.64 0 0 1-32 32z"  /><path   d="M695.04 967.68a293.76 293.76 0 1 1 293.12-293.76 294.4 294.4 0 0 1-293.12 293.76z m0-522.88a229.76 229.76 0 1 0 229.12 229.12A229.76 229.76 0 0 0 695.04 448z"  /><path   d="M384 1017.6H147.2a104.96 104.96 0 0 1-111.36-96V312.32a90.24 90.24 0 0 1 37.12-71.68L294.4 37.76A128 128 0 0 1 371.2 11.52h467.2a104.96 104.96 0 0 1 110.72 96v218.24a32 32 0 0 1-32 32 32.64 32.64 0 0 1-32-32V107.52c0-16.64-21.76-32-46.72-32H371.2a58.24 58.24 0 0 0-35.2 11.52L113.92 289.28a32 32 0 0 0-14.08 23.04v609.28c0 16.64 21.76 32 47.36 32H384a32 32 0 0 1 32 32 32.64 32.64 0 0 1-32 32z"  /></svg>