<?xml version="1.0" standalone="no"?><!DOCTYPE svg PUBLIC "-//W3C//DTD SVG 1.1//EN" "http://www.w3.org/Graphics/SVG/1.1/DTD/svg11.dtd"><svg class="icon" width="200px" height="200.00px" viewBox="0 0 1024 1024" version="1.1" xmlns="http://www.w3.org/2000/svg"><path   d="M782.72 1014.4H233.6a92.8 92.8 0 0 1-83.84-101.12V288.64a32 32 0 1 1 64 0v624.64c0 23.04 12.16 37.76 20.48 37.76h549.12c8.32 0 20.48-14.72 20.48-37.76V288.64a32 32 0 1 1 64 0v624.64a92.8 92.8 0 0 1-85.12 101.12zM960 186.24H57.6a31.36 31.36 0 0 1-32-31.36 32 32 0 0 1 32-32H960a32 32 0 0 1 32 32 31.36 31.36 0 0 1-32 31.36zM665.6 72.96H350.72a32 32 0 1 1 0-64h314.88a32 32 0 1 1 0 64z"  /><path   d="M407.04 873.6a31.36 31.36 0 0 1-31.36-31.36V341.76a32 32 0 1 1 64 0v500.48a31.36 31.36 0 0 1-32.64 31.36zM609.28 873.6a31.36 31.36 0 0 1-32-31.36V341.76a32 32 0 1 1 64 0v500.48a31.36 31.36 0 0 1-32 31.36z"  /></svg>