<?xml version="1.0" standalone="no"?><!DOCTYPE svg PUBLIC "-//W3C//DTD SVG 1.1//EN" "http://www.w3.org/Graphics/SVG/1.1/DTD/svg11.dtd"><svg class="icon" width="200px" height="200.00px" viewBox="0 0 1024 1024" version="1.1" xmlns="http://www.w3.org/2000/svg"><path   d="M240.64 330.88H107.52A92.8 92.8 0 0 1 14.72 238.08V104.32A92.8 92.8 0 0 1 107.52 11.52h133.12a92.8 92.8 0 0 1 92.8 92.8v133.76a92.8 92.8 0 0 1-92.8 92.8z m-133.12-256a30.72 30.72 0 0 0-30.72 30.72v132.48a30.72 30.72 0 0 0 30.72 30.72h133.12a30.72 30.72 0 0 0 30.72-30.72V104.32a30.72 30.72 0 0 0-30.72-30.72zM914.56 330.88H780.8a92.16 92.16 0 0 1-92.16-92.8V104.32A92.16 92.16 0 0 1 780.8 11.52h133.76a92.8 92.8 0 0 1 92.8 92.8v133.76a92.8 92.8 0 0 1-92.8 92.8z m-133.76-256a31.36 31.36 0 0 0-30.72 30.72v132.48a31.36 31.36 0 0 0 30.72 30.72h133.76a31.36 31.36 0 0 0 30.72-30.72V104.32a31.36 31.36 0 0 0-30.72-30.72zM240.64 1012.48H107.52a92.8 92.8 0 0 1-92.8-92.8v-133.76a92.8 92.8 0 0 1 92.8-92.8h133.12a92.8 92.8 0 0 1 92.8 92.8v133.76a92.8 92.8 0 0 1-92.8 92.8z m-133.12-256a30.72 30.72 0 0 0-30.72 30.72v133.76a30.72 30.72 0 0 0 30.72 30.72h133.12a30.72 30.72 0 0 0 30.72-30.72v-135.04a30.72 30.72 0 0 0-30.72-30.72zM914.56 1012.48H780.8a92.16 92.16 0 0 1-92.16-92.8v-133.76a92.16 92.16 0 0 1 92.16-92.8h133.76a92.8 92.8 0 0 1 92.8 92.8v133.76a92.8 92.8 0 0 1-92.8 92.8z m-133.76-256a31.36 31.36 0 0 0-30.72 30.72v133.76a31.36 31.36 0 0 0 30.72 30.72h133.76a31.36 31.36 0 0 0 30.72-30.72v-135.04a31.36 31.36 0 0 0-30.72-30.72z"  /><path   d="M719.36 202.24H302.72a31.36 31.36 0 1 1 0-64h416.64a31.36 31.36 0 0 1 0 64zM719.36 883.84H302.72a31.36 31.36 0 1 1 0-64h416.64a31.36 31.36 0 0 1 0 64zM170.24 754.56a31.36 31.36 0 0 1-31.36-31.36V306.56a31.36 31.36 0 0 1 64 0v416.64a31.36 31.36 0 0 1-32.64 31.36zM851.84 754.56a31.36 31.36 0 0 1-31.36-31.36V306.56a31.36 31.36 0 0 1 64 0v416.64a31.36 31.36 0 0 1-32.64 31.36z"  /></svg>