<?xml version="1.0" standalone="no"?><!DOCTYPE svg PUBLIC "-//W3C//DTD SVG 1.1//EN" "http://www.w3.org/Graphics/SVG/1.1/DTD/svg11.dtd"><svg class="icon" width="200px" height="200.00px" viewBox="0 0 1024 1024" version="1.1" xmlns="http://www.w3.org/2000/svg"><path   d="M517.12 1012.48a35.84 35.84 0 0 1-25.6-10.88l-259.84-280.32a32.64 32.64 0 0 1-9.6-23.68V115.84A104.96 104.96 0 0 1 327.04 11.52h369.92a104.96 104.96 0 0 1 104.96 104.32v448a35.2 35.2 0 1 1-70.4 0v-448a34.56 34.56 0 0 0-34.56-34.56H327.04a34.56 34.56 0 0 0-34.56 34.56v546.56H768a35.2 35.2 0 0 1 32 21.12 34.56 34.56 0 0 1-5.76 37.12l-249.6 280.32a33.28 33.28 0 0 1-25.6 11.52z m-179.84-279.68l179.84 192 171.52-192z"  /><path   d="M402.56 593.92a35.2 35.2 0 0 1-34.56-35.2v-512a35.2 35.2 0 0 1 69.76 0v512a35.2 35.2 0 0 1-35.2 35.2z"  /></svg>