<?xml version="1.0" standalone="no"?><!DOCTYPE svg PUBLIC "-//W3C//DTD SVG 1.1//EN" "http://www.w3.org/Graphics/SVG/1.1/DTD/svg11.dtd"><svg class="icon" width="200px" height="200.00px" viewBox="0 0 1024 1024" version="1.1" xmlns="http://www.w3.org/2000/svg"><path   d="M837.12 951.68H188.16a96 96 0 0 1-96-95.36V165.12a96 96 0 0 1 96-96h648.96a96 96 0 0 1 96 96v691.2a96 96 0 0 1-96 95.36zM188.16 133.12a32 32 0 0 0-32 32v691.2a32 32 0 0 0 32 31.36h648.96a31.36 31.36 0 0 0 32-31.36V165.12a32 32 0 0 0-32-32z"  /><path   d="M707.2 389.76H320a32.64 32.64 0 0 1-32-32 32 32 0 0 1 32-32h389.12a32 32 0 0 1 32 32 32.64 32.64 0 0 1-33.92 32zM707.2 621.44H320a32 32 0 1 1 0-64h389.12a32 32 0 0 1 0 64zM946.56 727.04H876.8v133.12a33.28 33.28 0 0 1-33.92 33.28H182.4a33.28 33.28 0 0 1-33.92-33.28v-133.12H77.44a64 64 0 0 0-64 67.2v128a64 64 0 0 0 64 64h869.12a64 64 0 0 0 64-64v-128a64 64 0 0 0-64-67.2z"  /></svg>