<?xml version="1.0" standalone="no"?><!DOCTYPE svg PUBLIC "-//W3C//DTD SVG 1.1//EN" "http://www.w3.org/Graphics/SVG/1.1/DTD/svg11.dtd"><svg class="icon" width="200px" height="200.00px" viewBox="0 0 1024 1024" version="1.1" xmlns="http://www.w3.org/2000/svg"><path   d="M919.04 1015.04H104.96a96 96 0 0 1-96-96V104.96a96 96 0 0 1 96-96h814.08a96 96 0 0 1 96 96v814.08a96 96 0 0 1-96 96zM104.96 72.96a32 32 0 0 0-32 32v814.08a32 32 0 0 0 32 32h814.08a32 32 0 0 0 32-32V104.96a32 32 0 0 0-32-32z"  /><path   d="M970.88 378.88H53.12a32 32 0 0 1 0-64h917.76a32 32 0 0 1 0 64z"  /><path   d="M616.96 199.68m-35.84 0a35.84 35.84 0 1 0 71.68 0 35.84 35.84 0 1 0-71.68 0Z"  /><path   d="M729.6 199.68m-35.84 0a35.84 35.84 0 1 0 71.68 0 35.84 35.84 0 1 0-71.68 0Z"  /><path   d="M840.96 199.68m-35.84 0a35.84 35.84 0 1 0 71.68 0 35.84 35.84 0 1 0-71.68 0Z"  /></svg>