<?xml version="1.0" standalone="no"?><!DOCTYPE svg PUBLIC "-//W3C//DTD SVG 1.1//EN" "http://www.w3.org/Graphics/SVG/1.1/DTD/svg11.dtd"><svg class="icon" width="200px" height="200.00px" viewBox="0 0 1024 1024" version="1.1" xmlns="http://www.w3.org/2000/svg"><path   d="M512 1013.76A501.12 501.12 0 1 1 1013.12 512 501.76 501.76 0 0 1 512 1013.76zM512 76.16A436.48 436.48 0 1 0 948.48 512 437.12 437.12 0 0 0 512 76.16z"  /><path   d="M640 664.32a35.84 35.84 0 0 1-17.28-5.12L464.64 556.16A32 32 0 0 1 448 529.28v-332.8a32.64 32.64 0 0 1 32.64-32 32 32 0 0 1 32 32V512l143.36 92.8a32.64 32.64 0 0 1-17.92 59.52z"  /></svg>