<?xml version="1.0" standalone="no"?><!DOCTYPE svg PUBLIC "-//W3C//DTD SVG 1.1//EN" "http://www.w3.org/Graphics/SVG/1.1/DTD/svg11.dtd"><svg class="icon" width="200px" height="200.00px" viewBox="0 0 1024 1024" version="1.1" xmlns="http://www.w3.org/2000/svg"><path   d="M452.48 1005.44H201.6a97.92 97.92 0 0 1-97.92-97.28V110.72A98.56 98.56 0 0 1 201.6 12.8h600.96a97.92 97.92 0 0 1 97.28 97.92v171.52a33.92 33.92 0 0 1-33.92 33.92 33.92 33.92 0 0 1-33.92-33.92V110.72a30.08 30.08 0 0 0-29.44-29.44H201.6a30.08 30.08 0 0 0-29.44 29.44v797.44a30.08 30.08 0 0 0 29.44 29.44h250.88a33.92 33.92 0 0 1 33.92 33.92 33.92 33.92 0 0 1-33.92 33.92z"  /><path   d="M696.96 900.48a247.68 247.68 0 1 1 247.04-247.04 247.04 247.04 0 0 1-247.04 247.04z m0-430.72a183.68 183.68 0 1 0 183.04 183.68 184.32 184.32 0 0 0-183.04-183.68z"  /><path   d="M744.32 727.68a33.92 33.92 0 0 1-17.28-5.12l-51.2-33.28a31.36 31.36 0 0 1-14.72-26.88v-108.8a32 32 0 0 1 32-32 32.64 32.64 0 0 1 32 32v90.88l37.12 24.32a32 32 0 0 1 8.96 44.16 30.72 30.72 0 0 1-26.88 14.72z"  /></svg>