<?xml version="1.0" standalone="no"?><!DOCTYPE svg PUBLIC "-//W3C//DTD SVG 1.1//EN" "http://www.w3.org/Graphics/SVG/1.1/DTD/svg11.dtd"><svg class="icon" width="200px" height="200.00px" viewBox="0 0 1024 1024" version="1.1" xmlns="http://www.w3.org/2000/svg"><path   d="M943.36 465.92a23.68 23.68 0 0 1-11.52 0l-110.08-42.24a31.36 31.36 0 0 1-17.92-40.96 32 32 0 0 1 40.96-18.56l80 30.72 30.72-80a32 32 0 0 1 59.52 23.04L972.8 448a32.64 32.64 0 0 1-29.44 17.92z"  /><path   d="M490.24 1002.24a482.56 482.56 0 1 1 460.16-626.56 31.36 31.36 0 0 1-21.12 39.68 31.36 31.36 0 0 1-39.68-20.48 419.84 419.84 0 1 0 18.56 128 32 32 0 0 1 32-32 32 32 0 0 1 32 32 481.92 481.92 0 0 1-481.92 479.36z"  /></svg>