<?xml version="1.0" standalone="no"?><!DOCTYPE svg PUBLIC "-//W3C//DTD SVG 1.1//EN" "http://www.w3.org/Graphics/SVG/1.1/DTD/svg11.dtd"><svg class="icon" width="200px" height="200.00px" viewBox="0 0 1024 1024" version="1.1" xmlns="http://www.w3.org/2000/svg"><path   d="M926.72 1016.32h-768A96.64 96.64 0 0 1 64 919.68V104.32A96.64 96.64 0 0 1 161.28 7.68h704A96.64 96.64 0 0 1 960 104.32v621.44a95.36 95.36 0 0 1-28.16 69.12 123.52 123.52 0 0 1-94.72 32c-91.52-3.2-657.28 0-663.04 0a50.56 50.56 0 0 0-34.56 9.6 37.12 37.12 0 0 0-8.96 28.8v54.4a32 32 0 0 0 32 32.64h768a32 32 0 0 1 32 32 32 32 0 0 1-35.84 32zM161.28 71.68a32 32 0 0 0-32 32.64V768a131.2 131.2 0 0 1 46.08-6.4c20.48 0 569.6-3.2 662.4 0a64 64 0 0 0 47.36-12.8 35.84 35.84 0 0 0 9.6-23.04V104.32a32 32 0 0 0-32-32.64z"  /><path   d="M384 589.44a32.64 32.64 0 0 1-10.88 0 32 32 0 0 1-21.12-30.08V245.12a32 32 0 1 1 64 0v221.44l197.12-241.28a32 32 0 0 1 35.84-10.24 32 32 0 0 1 21.12 30.08v312.32a32 32 0 0 1-64 0V336L410.88 576a32.64 32.64 0 0 1-26.88 13.44z"  /></svg>