<?xml version="1.0" standalone="no"?><!DOCTYPE svg PUBLIC "-//W3C//DTD SVG 1.1//EN" "http://www.w3.org/Graphics/SVG/1.1/DTD/svg11.dtd"><svg class="icon" width="200px" height="200.00px" viewBox="0 0 1024 1024" version="1.1" xmlns="http://www.w3.org/2000/svg"><path   d="M990.08 837.76H37.76a32 32 0 0 1-32-32 32 32 0 0 1 32-32h952.32a32.64 32.64 0 0 1 32 32 32 32 0 0 1-32 32zM878.72 949.76H148.48a28.16 28.16 0 0 1 0-56.32h730.24a28.16 28.16 0 0 1 0 56.32z"  /><path   d="M148.48 810.88a24.32 24.32 0 0 1-20.48-24.32V172.8a87.68 87.68 0 0 1 84.48-87.68h453.76a24.32 24.32 0 0 1 0 48.64H212.48a39.04 39.04 0 0 0-39.68 39.04v613.76a24.32 24.32 0 0 1-24.32 24.32zM878.72 810.88a24.32 24.32 0 0 1-24.32-24.32V357.12a24.32 24.32 0 0 1 48.64 0v429.44a24.32 24.32 0 0 1-24.32 24.32zM691.2 735.36a24.32 24.32 0 0 1-24.32-23.68V357.12a24.32 24.32 0 1 1 48.64 0v354.56a24.32 24.32 0 0 1-24.32 23.68zM512 735.36a24.32 24.32 0 0 1-24.32-23.68V448a24.32 24.32 0 0 1 48.64 0v263.68a24.32 24.32 0 0 1-24.32 23.68z"  /><path   d="M323.2 735.36a24.32 24.32 0 0 1-24.32-23.68V534.4a24.32 24.32 0 0 1 48.64 0v177.28a24.32 24.32 0 0 1-24.32 23.68zM256 403.84a26.24 26.24 0 0 1-21.12-11.52 24.32 24.32 0 0 1 8.32-33.28l184.32-112.64a23.04 23.04 0 0 1 12.8-3.84h192l184.96-93.44a24.32 24.32 0 0 1 22.4 43.52l-192 96a22.4 22.4 0 0 1-10.88 0H448L266.88 400a24.96 24.96 0 0 1-10.88 3.84z"  /><path   d="M845.44 299.52h-3.2a23.68 23.68 0 0 1-20.48-26.88l14.08-106.24-80.64-46.72a24.32 24.32 0 0 1-8.96-33.28 24.96 24.96 0 0 1 33.28-8.96l94.72 54.4a24.32 24.32 0 0 1 12.16 24.32l-16.64 122.24a24.96 24.96 0 0 1-24.32 21.12z"  /></svg>