<?xml version="1.0" standalone="no"?><!DOCTYPE svg PUBLIC "-//W3C//DTD SVG 1.1//EN" "http://www.w3.org/Graphics/SVG/1.1/DTD/svg11.dtd"><svg class="icon" width="200px" height="200.00px" viewBox="0 0 1024 1024" version="1.1" xmlns="http://www.w3.org/2000/svg"><path   d="M512 1015.04A503.68 503.68 0 0 1 337.28 39.68a32 32 0 0 1 40.96 19.2 31.36 31.36 0 0 1-18.56 40.96 439.04 439.04 0 1 0 563.84 566.4 32 32 0 0 1 40.96-18.56 32 32 0 0 1 18.56 41.6A505.6 505.6 0 0 1 512 1015.04z"  /><path   d="M983.04 544H512a32 32 0 0 1-32-32V40.96a32 32 0 0 1 32-32A503.04 503.04 0 0 1 1015.04 512a32 32 0 0 1-32 32z m-439.04-64h406.4A440.96 440.96 0 0 0 544 73.6z"  /></svg>