<?xml version="1.0" standalone="no"?><!DOCTYPE svg PUBLIC "-//W3C//DTD SVG 1.1//EN" "http://www.w3.org/Graphics/SVG/1.1/DTD/svg11.dtd"><svg class="icon" width="200px" height="200.00px" viewBox="0 0 1024 1024" version="1.1" xmlns="http://www.w3.org/2000/svg"><path   d="M903.68 1010.56H120.32a96 96 0 0 1-96-96V131.2A96 96 0 0 1 120.32 35.84h783.36a96 96 0 0 1 96 95.36v783.36a96 96 0 0 1-96 96zM120.32 99.84a32 32 0 0 0-32 31.36v783.36a32.64 32.64 0 0 0 32 32h783.36a32.64 32.64 0 0 0 32-32V131.2a32 32 0 0 0-32-31.36z"  /><path   d="M967.68 346.24H56.32a32 32 0 0 1-32-32 32.64 32.64 0 0 1 32-32h911.36a32.64 32.64 0 0 1 32 32 32 32 0 0 1-32 32zM216.32 260.48a69.12 69.12 0 0 1 0-138.24 69.12 69.12 0 0 1 0 138.24z m0-90.24a21.12 21.12 0 1 0 21.12 21.76 21.12 21.12 0 0 0-21.12-21.76zM395.52 260.48a69.12 69.12 0 0 1 0-138.24 69.12 69.12 0 0 1 0 138.24z m0-90.24a21.12 21.12 0 1 0 21.12 21.76 21.12 21.12 0 0 0-21.12-21.76zM576 260.48A69.12 69.12 0 1 1 643.84 192 69.12 69.12 0 0 1 576 260.48z m0-90.24a21.12 21.12 0 1 0 19.84 21.76 21.12 21.12 0 0 0-19.84-21.76z"  /></svg>