<svg width="200px" height="200.00px" viewBox="0 0 1024 1024" version="1.1" xmlns="http://www.w3.org/2000/svg"><path d="M512 554.88a271.36 271.36 0 1 1 271.36-271.36A272 272 0 0 1 512 554.88z m0-480a208.64 208.64 0 1 0 209.28 208.64A209.28 209.28 0 0 0 512 74.88z"  /><path d="M633.6 1011.84H64v-69.76a448 448 0 0 1 448-448 31.36 31.36 0 0 1 0 64 387.84 387.84 0 0 0-384 387.2v7.04h505.6a31.36 31.36 0 0 1 0 64zM837.12 695.68a78.72 78.72 0 1 1 78.72-78.72 78.72 78.72 0 0 1-78.72 78.72z m0-110.08a32 32 0 1 0 0 64 32 32 0 1 0 0-64z"  /><path d="M673.28 846.72A78.72 78.72 0 1 1 752 768a78.72 78.72 0 0 1-78.72 78.72z m0-110.72a32 32 0 0 0-32 32 32 32 0 1 0 64 0 31.36 31.36 0 0 0-32-32zM881.92 942.72A78.72 78.72 0 1 1 960 864a79.36 79.36 0 0 1-78.08 78.72z m0-110.72a32 32 0 0 0-31.36 32 32 32 0 1 0 64 0 32 32 0 0 0-32.64-32z"  /><path d="M689.152 722.496l93.312-83.84 31.232 34.752-93.312 83.84zM836.48 866.56l-113.92-53.76 20.48-42.24 113.28 53.12-19.84 42.88z"  /></svg>