<?xml version="1.0" standalone="no"?><!DOCTYPE svg PUBLIC "-//W3C//DTD SVG 1.1//EN" "http://www.w3.org/Graphics/SVG/1.1/DTD/svg11.dtd"><svg class="icon" width="200px" height="200.00px" viewBox="0 0 1024 1024" version="1.1" xmlns="http://www.w3.org/2000/svg"><path   d="M822.4 545.28H199.04a31.36 31.36 0 1 1 0-64h623.36a31.36 31.36 0 1 1 0 64z"  /><path   d="M512 856.96a31.36 31.36 0 0 1-31.36-31.36V202.24a31.36 31.36 0 0 1 64 0v623.36a31.36 31.36 0 0 1-32.64 31.36z"  /><path   d="M512 1016.96A506.24 506.24 0 1 1 1018.24 512 506.88 506.88 0 0 1 512 1016.96zM512 67.2A443.52 443.52 0 1 0 955.52 512 444.16 444.16 0 0 0 512 67.2z"  /></svg>