<?xml version="1.0" standalone="no"?><!DOCTYPE svg PUBLIC "-//W3C//DTD SVG 1.1//EN" "http://www.w3.org/Graphics/SVG/1.1/DTD/svg11.dtd"><svg class="icon" width="200px" height="200.00px" viewBox="0 0 1024 1024" version="1.1" xmlns="http://www.w3.org/2000/svg"><path   d="M924.8 950.4H99.2a95.36 95.36 0 0 1-95.36-95.36v-704A96 96 0 0 1 99.2 54.4h825.6a96 96 0 0 1 95.36 96v704a95.36 95.36 0 0 1-95.36 96z m-825.6-832a31.36 31.36 0 0 0-31.36 32v704a31.36 31.36 0 0 0 31.36 31.36h825.6a31.36 31.36 0 0 0 31.36-31.36v-704a31.36 31.36 0 0 0-31.36-32z"  /><path   d="M146.56 832a30.08 30.08 0 0 1-22.4-8.96 32 32 0 0 1 0-45.44L320 583.68a32 32 0 0 1 45.44 0l192 192a32 32 0 0 1 0 44.8 32 32 0 0 1-45.44 0l-168.96-168.96-174.08 174.08a29.44 29.44 0 0 1-22.4 6.4z"  /><path   d="M842.88 819.2a32.64 32.64 0 0 1-23.04-9.6l-217.6-217.6-123.52 123.52a32 32 0 0 1-45.44 0 32 32 0 0 1 0-44.8l146.56-146.56a32.64 32.64 0 0 1 45.44 0l240 240a32 32 0 0 1 0 45.44 32 32 0 0 1-22.4 9.6zM313.6 455.04a105.6 105.6 0 1 1 105.6-105.6A105.6 105.6 0 0 1 313.6 455.04z m0-147.2a41.6 41.6 0 1 0 41.6 41.6 41.6 41.6 0 0 0-41.6-41.6z"  /></svg>