<?xml version="1.0" standalone="no"?><!DOCTYPE svg PUBLIC "-//W3C//DTD SVG 1.1//EN" "http://www.w3.org/Graphics/SVG/1.1/DTD/svg11.dtd"><svg class="icon" width="200px" height="200.00px" viewBox="0 0 1024 1024" version="1.1" xmlns="http://www.w3.org/2000/svg"><path   d="M647.04 1024H432a78.08 78.08 0 0 1-78.08-78.08V832a78.08 78.08 0 0 1 78.08-77.44h215.04A77.44 77.44 0 0 1 724.48 832v115.84A78.08 78.08 0 0 1 647.04 1024z m-215.04-192v112.64h212.48v-110.08z m211.84 0zM647.04 649.6H432a78.08 78.08 0 0 1-78.08-78.08V455.68a78.08 78.08 0 0 1 78.08-77.44h215.04a77.44 77.44 0 0 1 77.44 77.44v115.84a78.08 78.08 0 0 1-77.44 78.08z m-215.04-192v112.64h212.48V460.16z m211.84 0zM647.04 275.84H432a78.08 78.08 0 0 1-78.08-78.08V81.92A78.08 78.08 0 0 1 432 4.48h215.04a77.44 77.44 0 0 1 77.44 77.44v115.84a78.08 78.08 0 0 1-77.44 78.08z m-215.04-192v112.64h212.48V86.4z m211.84-3.2z"  /></svg>