<?xml version="1.0" standalone="no"?><!DOCTYPE svg PUBLIC "-//W3C//DTD SVG 1.1//EN" "http://www.w3.org/Graphics/SVG/1.1/DTD/svg11.dtd"><svg class="icon" width="200px" height="200.00px" viewBox="0 0 1024 1024" version="1.1" xmlns="http://www.w3.org/2000/svg"><path   d="M866.56 1015.04H157.44a97.28 97.28 0 0 1-97.28-97.28V104.96A97.28 97.28 0 0 1 157.44 8.32h709.12a97.28 97.28 0 0 1 97.28 96.64v812.8a97.28 97.28 0 0 1-97.28 97.28zM157.44 72.96a32 32 0 0 0-32.64 32v812.8a32.64 32.64 0 0 0 32.64 32.64h709.12a32.64 32.64 0 0 0 32.64-32.64V104.96a32 32 0 0 0-32.64-32z"  /><path   d="M802.56 352H221.44A32 32 0 0 1 192 320V170.88a32.64 32.64 0 0 1 32.64-32h581.12a32.64 32.64 0 0 1 32.64 32V320a32 32 0 0 1-35.84 32zM256 287.36h512V203.52H256zM459.52 884.48H221.44a32.64 32.64 0 0 1-29.44-32.64V408.32a32 32 0 0 1 32.64-32h234.88a32 32 0 0 1 32 32v443.52a32 32 0 0 1-32 32.64zM256 819.84h170.88V440.96H256zM802.56 884.48H564.48a32 32 0 0 1-32-32.64V408.32a32 32 0 0 1 32-32h238.08a32 32 0 0 1 32.64 32v443.52a32.64 32.64 0 0 1-32.64 32.64z m-205.44-64H768V440.96H597.12z"  /></svg>