<?xml version="1.0" standalone="no"?><!DOCTYPE svg PUBLIC "-//W3C//DTD SVG 1.1//EN" "http://www.w3.org/Graphics/SVG/1.1/DTD/svg11.dtd"><svg class="icon" width="200px" height="200.00px" viewBox="0 0 1024 1024" version="1.1" xmlns="http://www.w3.org/2000/svg"><path   d="M922.24 1016.96H101.76a96 96 0 0 1-95.36-96V101.12A96 96 0 0 1 101.76 5.12h820.48a96 96 0 0 1 95.36 96v819.84a96 96 0 0 1-95.36 96zM101.76 69.12a31.36 31.36 0 0 0-31.36 32v819.84a32 32 0 0 0 31.36 32h820.48a32 32 0 0 0 31.36-32V101.12a31.36 31.36 0 0 0-31.36-32z"  /><path   d="M768 238.08H256a32 32 0 0 1 0-64h512a32 32 0 0 1 0 64zM768 529.28H256a32.64 32.64 0 0 1-32-32 32 32 0 0 1 32-32h512a32 32 0 0 1 32 32 32.64 32.64 0 0 1-32 32zM768 819.84H256a32 32 0 0 1 0-64h512a32 32 0 0 1 0 64z"  /></svg>