<?xml version="1.0" standalone="no"?><!DOCTYPE svg PUBLIC "-//W3C//DTD SVG 1.1//EN" "http://www.w3.org/Graphics/SVG/1.1/DTD/svg11.dtd"><svg class="icon" width="200px" height="200.00px" viewBox="0 0 1024 1024" version="1.1" xmlns="http://www.w3.org/2000/svg"><path   d="M512 1015.68A504.96 504.96 0 1 1 1016.32 512 504.96 504.96 0 0 1 512 1015.68zM512 72.96A438.4 438.4 0 1 0 949.76 512 438.4 438.4 0 0 0 512 72.96z"  /><path   d="M734.72 501.76h-230.4c-12.16 0-17.92-8.32-12.8-17.92l13.44-26.24 105.6-211.84A33.92 33.92 0 0 0 582.4 192h-128a36.48 36.48 0 0 0-30.08 19.84S270.08 559.36 261.12 576a35.84 35.84 0 0 0 30.08 53.12h222.08a17.92 17.92 0 0 1 18.56 21.12s-38.4 247.04-41.6 261.76a11.52 11.52 0 0 0 21.12 7.04c7.68-11.52 172.8-259.84 248.32-368.64a31.36 31.36 0 0 0-24.96-51.84z m0 0"  /></svg>