<?xml version="1.0" standalone="no"?><!DOCTYPE svg PUBLIC "-//W3C//DTD SVG 1.1//EN" "http://www.w3.org/Graphics/SVG/1.1/DTD/svg11.dtd"><svg class="icon" width="200px" height="200.00px" viewBox="0 0 1024 1024" version="1.1" xmlns="http://www.w3.org/2000/svg"><path   d="M688.64 995.2H341.12a53.12 53.12 0 0 1-53.12-52.48V520.96H45.44a32 32 0 0 1-30.08-21.12 30.72 30.72 0 0 1 8.32-35.2L512 21.76a32 32 0 0 1 44.16 0l442.88 442.24a33.92 33.92 0 0 1 7.04 35.84 32 32 0 0 1-30.08 19.84h-215.68v402.56a71.68 71.68 0 0 1-71.68 72.96z m-336-64h336a7.04 7.04 0 0 0 7.04-7.04V488.32a32 32 0 0 1 32.64-32h172.16L535.04 90.88 128 456.32h192a32 32 0 0 1 32.64 32z"  /></svg>