<?xml version="1.0" standalone="no"?><!DOCTYPE svg PUBLIC "-//W3C//DTD SVG 1.1//EN" "http://www.w3.org/Graphics/SVG/1.1/DTD/svg11.dtd"><svg class="icon" width="200px" height="200.00px" viewBox="0 0 1024 1024" version="1.1" xmlns="http://www.w3.org/2000/svg"><path   d="M528 403.2l-173.44-46.08a29.44 29.44 0 0 0-27.52 7.68A28.16 28.16 0 0 0 320 384a43.52 43.52 0 0 0 0 8.96l42.88 156.8v5.12l448 430.08a72.96 72.96 0 0 0 58.24 19.2 87.68 87.68 0 0 0 60.8-24.96l40.32-40.96a81.28 81.28 0 0 0 25.6-58.24 67.84 67.84 0 0 0-20.48-49.28l-448-430.08z m330.88 542.08l-44.16-42.24L888.32 832l43.52 42.24a19.2 19.2 0 0 1 0 27.52l-41.6 40.96a24.96 24.96 0 0 1-16 6.4 19.84 19.84 0 0 1-12.8-4.48zM520.32 479.36l320 308.48L768 857.6 448 549.12z m-128-57.6l85.12 22.4-64 60.16zM683.52 960"  /><path   d="M600.32 1017.6H140.16a104.96 104.96 0 0 1-111.36-96V312.32A90.24 90.24 0 0 1 64 240.64L288 37.76A123.52 123.52 0 0 1 364.16 11.52H832a104.96 104.96 0 0 1 110.72 96V576a32 32 0 0 1-32 32 32 32 0 0 1-32-32V107.52c0-16.64-21.76-32-46.72-32H364.16a58.24 58.24 0 0 0-35.2 11.52L106.88 289.28a30.72 30.72 0 0 0-14.08 23.04v609.28c0 16.64 21.76 32 47.36 32h460.16a32 32 0 0 1 32 32 32 32 0 0 1-32 32z"  /></svg>