<?xml version="1.0" standalone="no"?><!DOCTYPE svg PUBLIC "-//W3C//DTD SVG 1.1//EN" "http://www.w3.org/Graphics/SVG/1.1/DTD/svg11.dtd"><svg class="icon" width="200px" height="200.00px" viewBox="0 0 1024 1024" version="1.1" xmlns="http://www.w3.org/2000/svg"><path   d="M619.52 1013.12H186.88a107.52 107.52 0 0 1-107.52-107.52V120.96A107.52 107.52 0 0 1 186.88 13.44h681.6a107.52 107.52 0 0 1 107.52 107.52v535.68a32.64 32.64 0 0 1-32.64 32.64 32 32 0 0 1-32-32.64V120.96a42.88 42.88 0 0 0-42.88-42.24H186.88a42.24 42.24 0 0 0-42.24 42.24v784.64a41.6 41.6 0 0 0 42.24 42.24h432.64a32.64 32.64 0 0 1 0 64z"  /><path   d="M708.48 919.04l-35.84-231.68a19.2 19.2 0 0 1 25.6-20.48l218.88 85.12a18.56 18.56 0 0 1 4.48 32l-183.04 146.56a18.56 18.56 0 0 1-30.08-11.52z m59.52-139.52"  /><path   d="M943.36 1009.92a30.72 30.72 0 0 1-24.32-10.88l-192-217.6a33.28 33.28 0 0 1 0-46.08 32.64 32.64 0 0 1 45.44 0l192 217.6a33.28 33.28 0 0 1-3.2 46.08 34.56 34.56 0 0 1-17.92 10.88z"  /></svg>