<?xml version="1.0" standalone="no"?><!DOCTYPE svg PUBLIC "-//W3C//DTD SVG 1.1//EN" "http://www.w3.org/Graphics/SVG/1.1/DTD/svg11.dtd"><svg class="icon" width="200px" height="200.00px" viewBox="0 0 1024 1024" version="1.1" xmlns="http://www.w3.org/2000/svg"><path   d="M919.04 1013.76H104.96a96 96 0 0 1-96-96V103.68a96 96 0 0 1 96-96h814.08a96 96 0 0 1 96 96v814.08a96 96 0 0 1-96 96zM104.96 64a37.12 37.12 0 0 0-37.12 37.12v816.64a36.48 36.48 0 0 0 37.12 36.48h814.08a36.48 36.48 0 0 0 37.12-36.48V103.68a37.12 37.12 0 0 0-37.12-39.68z"  /><path   d="M985.6 262.4V103.68a64 64 0 0 0-64-64H104.96a64 64 0 0 0-64 64V262.4z"  /></svg>