<?xml version="1.0" standalone="no"?><!DOCTYPE svg PUBLIC "-//W3C//DTD SVG 1.1//EN" "http://www.w3.org/Graphics/SVG/1.1/DTD/svg11.dtd"><svg class="icon" width="200px" height="200.00px" viewBox="0 0 1024 1024" version="1.1" xmlns="http://www.w3.org/2000/svg"><path   d="M529.92 936.96H280.96a30.72 30.72 0 0 1-24.96-16L22.4 521.6a32 32 0 0 1 0-32L256 89.6a30.72 30.72 0 0 1 27.52-16h462.08a30.72 30.72 0 0 1 22.4 16l231.04 400a32 32 0 0 1 0 32L896 707.84a32.64 32.64 0 0 1-44.16 11.52 31.36 31.36 0 0 1-11.52-43.52l96.64-170.24-212.48-368H299.52L87.04 505.6l212.48 367.36h230.4a32 32 0 0 1 32 32 32 32 0 0 1-32 32z"  /><path   d="M616.96 889.6l-30.72-197.76a16 16 0 0 1 21.76-17.28l186.24 72.96a16 16 0 0 1 4.48 27.52l-156.16 128a16 16 0 0 1-25.6-13.44z m50.56-118.4"  /><path   d="M817.28 972.16a33.28 33.28 0 0 1-24.32-10.88l-162.56-185.6a32.64 32.64 0 0 1 3.2-45.44 31.36 31.36 0 0 1 44.8 3.2l163.2 185.6a31.36 31.36 0 0 1-3.2 44.8 30.72 30.72 0 0 1-21.12 8.32z"  /></svg>