<?xml version="1.0" standalone="no"?><!DOCTYPE svg PUBLIC "-//W3C//DTD SVG 1.1//EN" "http://www.w3.org/Graphics/SVG/1.1/DTD/svg11.dtd"><svg class="icon" width="200px" height="200.00px" viewBox="0 0 1024 1024" version="1.1" xmlns="http://www.w3.org/2000/svg"><path   d="M501.76 554.88a270.72 270.72 0 1 1 270.08-270.72 271.36 271.36 0 0 1-270.08 270.72z m0-478.08a208 208 0 1 0 208 207.36A207.36 207.36 0 0 0 501.76 76.8z"  /><path   d="M622.72 1009.92H54.4v-69.76a448 448 0 0 1 448-448 31.36 31.36 0 0 1 0 64 384 384 0 0 0-384 384v7.68h504.32a30.72 30.72 0 0 1 30.72 31.36 30.08 30.08 0 0 1-30.72 30.72zM938.88 729.6H640a32.64 32.64 0 0 1-29.44-21.12 33.28 33.28 0 0 1 10.88-35.2l92.8-69.76a30.72 30.72 0 0 1 43.52 5.76 31.36 31.36 0 0 1-5.76 43.52l-19.2 14.08h208.64a31.36 31.36 0 0 1 0 64z"  /><path   d="M846.08 905.6a32.64 32.64 0 0 1-24.96-12.16 30.72 30.72 0 0 1 6.4-43.52l18.56-14.72H640a30.72 30.72 0 0 1-30.72-30.72 31.36 31.36 0 0 1 30.72-31.36h301.44a30.72 30.72 0 0 1 29.44 21.12 30.08 30.08 0 0 1-10.88 37.76l-92.8 70.4a28.8 28.8 0 0 1-21.12 3.2z"  /></svg>