<?xml version="1.0" standalone="no"?><!DOCTYPE svg PUBLIC "-//W3C//DTD SVG 1.1//EN" "http://www.w3.org/Graphics/SVG/1.1/DTD/svg11.dtd"><svg class="icon" width="200px" height="200.00px" viewBox="0 0 1024 1024" version="1.1" xmlns="http://www.w3.org/2000/svg"><path   d="M512 1011.84A499.84 499.84 0 1 1 1011.84 512 500.48 500.48 0 0 1 512 1011.84zM512 76.16A435.84 435.84 0 1 0 947.84 512 436.48 436.48 0 0 0 512 76.16z"  /><path   d="M512 176a32 32 0 0 1-32-32V44.16a32 32 0 0 1 32-32 32.64 32.64 0 0 1 32 32v99.84a32.64 32.64 0 0 1-32 32zM512 1011.84a32 32 0 0 1-32-32v-99.84a32 32 0 0 1 64 0v99.84a32 32 0 0 1-32 32zM144 543.36H44.16A32 32 0 0 1 12.16 512a32.64 32.64 0 0 1 32-32h99.84a32.64 32.64 0 0 1 32 32 32 32 0 0 1-32 31.36zM979.84 544.64h-99.2a32 32 0 0 1-32-32 32 32 0 0 1 32-32h99.2a32 32 0 0 1 32 32 32 32 0 0 1-32 32z"  /><path   d="M512 512m-87.04 0a87.04 87.04 0 1 0 174.08 0 87.04 87.04 0 1 0-174.08 0Z"  /><path   d="M877.44 245.76a30.72 30.72 0 0 1-24.96-12.16 32 32 0 0 1 5.12-41.6l82.56-64a32 32 0 0 1 45.44 0 32 32 0 0 1-5.12 44.8l-83.2 64a32 32 0 0 1-19.84 8.96zM570.88 489.6a30.72 30.72 0 0 1-24.96-12.16 32 32 0 0 1 5.12-44.8l158.08-128a31.36 31.36 0 0 1 44.8 5.12 32 32 0 0 1-5.12 44.8l-158.08 128a28.8 28.8 0 0 1-19.84 7.04z"  /></svg>