<?xml version="1.0" standalone="no"?><!DOCTYPE svg PUBLIC "-//W3C//DTD SVG 1.1//EN" "http://www.w3.org/Graphics/SVG/1.1/DTD/svg11.dtd"><svg class="icon" width="200px" height="200.00px" viewBox="0 0 1024 1024" version="1.1" xmlns="http://www.w3.org/2000/svg"><path   d="M392.32 1017.6H158.08a104.96 104.96 0 0 1-111.36-96V312.32a90.24 90.24 0 0 1 37.12-71.68L305.92 37.76A123.52 123.52 0 0 1 384 11.52h467.2a105.6 105.6 0 0 1 108.8 96v218.24a32.64 32.64 0 0 1-32 32 32 32 0 0 1-32-32V107.52c0-16.64-22.4-32-47.36-32H384a58.24 58.24 0 0 0-35.2 11.52L128 289.28a30.08 30.08 0 0 0-14.72 23.04v609.28c0 16.64 22.4 32 47.36 32h231.68a32 32 0 0 1 32 32 32 32 0 0 1-32 32z"  /><path   d="M650.24 937.6a289.92 289.92 0 1 1 289.92-289.92 289.92 289.92 0 0 1-289.92 289.92z m0-515.84a225.92 225.92 0 1 0 225.92 225.92 226.56 226.56 0 0 0-225.92-225.92z"  /><path   d="M503.68 704a32 32 0 0 1-32-32 205.44 205.44 0 0 1 205.44-205.44 32.64 32.64 0 0 1 32 32 32 32 0 0 1-32 32 142.08 142.08 0 0 0-141.44 141.44 32 32 0 0 1-32 32zM960 983.04a31.36 31.36 0 0 1-22.4-9.6l-72.32-71.68a32.64 32.64 0 0 1 0-45.44 32 32 0 0 1 45.44 0l71.68 72.32a30.72 30.72 0 0 1 0 44.8 30.08 30.08 0 0 1-22.4 9.6z"  /></svg>