<?xml version="1.0" standalone="no"?><!DOCTYPE svg PUBLIC "-//W3C//DTD SVG 1.1//EN" "http://www.w3.org/Graphics/SVG/1.1/DTD/svg11.dtd"><svg class="icon" width="200px" height="200.00px" viewBox="0 0 1024 1024" version="1.1" xmlns="http://www.w3.org/2000/svg"><path   d="M24.96 23.04m64 0l279.68 0q64 0 64 64l0 279.68q0 64-64 64l-279.68 0q-64 0-64-64l0-279.68q0-64 64-64Z"  /><path   d="M908.16 1009.92h-211.84a97.28 97.28 0 0 1-97.28-97.28V704a97.28 97.28 0 0 1 97.28-97.28h211.84A97.92 97.92 0 0 1 1005.44 704v211.2a97.92 97.92 0 0 1-97.28 94.72z m-211.84-341.12a32 32 0 0 0-32 32.64v211.2a32 32 0 0 0 32 32.64h211.84a32 32 0 0 0 32-32.64V704a32 32 0 0 0-32-32.64zM493.44 1009.92a31.36 31.36 0 0 1-23.04-9.6L29.44 556.8a32 32 0 0 1 0-44.8 32.64 32.64 0 0 1 46.08 0l440.32 443.52a32.64 32.64 0 0 1 0 46.08 33.28 33.28 0 0 1-22.4 8.32zM984.96 518.4A32.64 32.64 0 0 1 960 512L520.96 64a33.28 33.28 0 0 1 0-46.08 32 32 0 0 1 45.44 0l440.96 443.52a32.64 32.64 0 0 1-23.04 55.68z"  /></svg>