<?xml version="1.0" standalone="no"?><!DOCTYPE svg PUBLIC "-//W3C//DTD SVG 1.1//EN" "http://www.w3.org/Graphics/SVG/1.1/DTD/svg11.dtd"><svg class="icon" width="200px" height="200.00px" viewBox="0 0 1024 1024" version="1.1" xmlns="http://www.w3.org/2000/svg"><path   d="M987.52 1003.52a30.72 30.72 0 0 1-21.76-8.32l-277.12-263.68a31.36 31.36 0 0 1 0-44.8 32 32 0 0 1 44.8 0l277.12 263.04a31.36 31.36 0 0 1 0 44.8 32.64 32.64 0 0 1-23.04 8.96z"  /><path   d="M717.44 1010.56a31.36 31.36 0 0 1-21.76-8.96 30.72 30.72 0 0 1 0-44.16L960 680.32a32 32 0 1 1 46.08 43.52l-263.04 277.12a32.64 32.64 0 0 1-25.6 9.6zM463.36 554.88a274.56 274.56 0 1 1 273.92-273.92 274.56 274.56 0 0 1-273.92 273.92z m0-485.76a211.84 211.84 0 1 0 211.2 211.84 211.84 211.84 0 0 0-211.2-211.84z"  /><path   d="M586.24 1017.6h-576v-70.4a455.04 455.04 0 0 1 453.76-455.04 31.36 31.36 0 1 1 0 64 392.96 392.96 0 0 0-392.32 391.04v7.04h512a32 32 0 0 1 0 64z"  /></svg>