<?xml version="1.0" standalone="no"?><!DOCTYPE svg PUBLIC "-//W3C//DTD SVG 1.1//EN" "http://www.w3.org/Graphics/SVG/1.1/DTD/svg11.dtd"><svg class="icon" width="200px" height="200.00px" viewBox="0 0 1024 1024" version="1.1" xmlns="http://www.w3.org/2000/svg"><path   d="M741.76 808.96a32 32 0 0 1-32-32V192a32 32 0 0 1 32-32.64 32.64 32.64 0 0 1 32.64 32.64v588.16a32 32 0 0 1-32.64 28.8zM960 808.96a32 32 0 0 1-32.64-32V117.12a32.64 32.64 0 0 1 64 0v659.84a32 32 0 0 1-31.36 32zM533.76 808.96a32 32 0 0 1-32.64-32V339.2a32.64 32.64 0 0 1 64 0v437.76a32 32 0 0 1-31.36 32zM309.76 808.96a32 32 0 0 1-32-32V504.96a32.64 32.64 0 0 1 64 0v272a32 32 0 0 1-32 32z"  /><path   d="M986.88 960H115.84a107.52 107.52 0 0 1-106.88-109.44V177.92a32 32 0 0 1 32-32 32 32 0 0 1 32.64 32v672.64a42.88 42.88 0 0 0 42.24 42.88h871.04a32 32 0 0 1 32.64 32 32.64 32.64 0 0 1-32.64 34.56z"  /></svg>