<?xml version="1.0" standalone="no"?><!DOCTYPE svg PUBLIC "-//W3C//DTD SVG 1.1//EN" "http://www.w3.org/Graphics/SVG/1.1/DTD/svg11.dtd"><svg class="icon" width="200px" height="200.00px" viewBox="0 0 1024 1024" version="1.1" xmlns="http://www.w3.org/2000/svg"><path   d="M526.72 563.84A36.48 36.48 0 0 1 512 560L64 320a33.92 33.92 0 0 1-17.28-29.44 32 32 0 0 1 17.28-31.36L512 14.72a33.28 33.28 0 0 1 32.64 0L960 259.2A33.92 33.92 0 0 1 960 320L543.36 559.36a30.72 30.72 0 0 1-16.64 4.48zM148.48 288l377.6 204.16 352.64-203.52-355.2-206.08z"  /><path   d="M526.72 788.48a36.48 36.48 0 0 1-14.72-3.84L64 542.72A33.28 33.28 0 0 1 45.44 512 32 32 0 0 1 64 483.84l204.8-113.28a33.28 33.28 0 0 1 45.44 13.44 33.28 33.28 0 0 1-12.8 45.44L148.48 512l377.6 203.52L878.72 512l-144-82.56a33.28 33.28 0 1 1 33.28-57.6l192 112.64a31.36 31.36 0 0 1 16.64 28.8 32.64 32.64 0 0 1-16.64 28.8l-416.64 241.92a30.72 30.72 0 0 1-16.64 4.48z"  /><path   d="M526.72 1013.76a30.08 30.08 0 0 1-14.72-4.48L64 768a32 32 0 0 1-17.28-28.8 31.36 31.36 0 0 1 17.28-30.08L268.8 595.2a33.92 33.92 0 0 1 32.64 58.88l-152.96 83.84 377.6 204.16 352.64-204.16-144-83.2a33.92 33.92 0 0 1-12.16-46.08 33.28 33.28 0 0 1 45.44-12.16l192 112.64a33.28 33.28 0 0 1 16.64 28.8 34.56 34.56 0 0 1-16.64 30.08l-416.64 241.28a37.76 37.76 0 0 1-16.64 4.48z"  /></svg>