<?xml version="1.0" standalone="no"?><!DOCTYPE svg PUBLIC "-//W3C//DTD SVG 1.1//EN" "http://www.w3.org/Graphics/SVG/1.1/DTD/svg11.dtd"><svg t="1554972483328" class="icon" style="" viewBox="0 0 1024 1024" version="1.1" xmlns="http://www.w3.org/2000/svg" p-id="2021" xmlns:xlink="http://www.w3.org/1999/xlink" width="200" height="200"><defs><style type="text/css"></style></defs><path d="M676.297 0H145.61c-14.775 0-26.752 11.977-26.752 35.218v970.496c0 6.309 11.977 18.286 26.752 18.286h732.782c14.775 0 26.752-11.977 26.752-18.286V237.312c0-12.727-1.7-16.823-4.7-19.84L687.671 4.699A16.165 16.165 0 0 0 676.297 0z" fill="#E9E9E0" p-id="2022"></path><path d="M685.714 2.761V219.43h216.668z" fill="#D9D7CA" p-id="2023"></path><path d="M356.827 609.353c-6.363 0-12.47-2.066-17.682-5.961-19.035-14.281-21.595-30.171-20.388-40.997 3.328-29.769 40.137-60.928 109.44-92.672 27.501-60.27 53.668-134.528 69.266-196.571-18.25-39.717-35.986-91.246-23.058-121.472 4.534-10.587 10.185-18.706 20.736-22.217a89.783 89.783 0 0 1 18.578-3.145c9.216 0 17.316 11.867 23.058 19.181 5.394 6.876 17.628 21.45-6.82 124.38 24.649 50.907 59.574 102.766 93.037 138.276 23.973-4.333 44.6-6.546 61.404-6.546 28.635 0 45.988 6.674 53.065 20.425 5.851 11.374 3.456 24.668-7.132 39.497-10.185 14.245-24.228 21.779-40.594 21.779-22.235 0-48.128-14.044-77.001-41.783-51.877 10.843-112.457 30.19-161.426 51.602-15.287 32.439-29.934 58.57-43.575 77.733-18.743 26.24-34.908 38.491-50.908 38.491z m48.677-93.732c-39.077 21.96-55.003 40.009-56.155 50.176-0.183 1.682-0.677 6.107 7.88 12.653 2.725-0.86 18.634-8.119 48.275-62.83z m249.362-81.226c14.903 11.466 18.542 17.262 28.288 17.262 4.28 0 16.476-0.183 22.126-8.064 2.725-3.822 3.785-6.272 4.206-7.588-2.25-1.189-5.23-3.603-21.486-3.603-9.234 0.019-20.846 0.42-33.134 1.993zM518.272 314.04a1303.607 1303.607 0 0 1-48.896 138.313 913.664 913.664 0 0 1 118.784-36.937c-24.686-28.672-49.353-64.476-69.888-101.376z m-11.1-154.734c-1.791 0.604-24.32 32.128 1.756 58.807 17.353-38.674-0.97-59.063-1.755-58.807zM878.392 1024H145.609a26.752 26.752 0 0 1-26.752-26.752V713.143h786.286v284.105c0 14.775-11.977 26.752-26.752 26.752z" fill="#CC4B4C" p-id="2024"></path><path d="M317.897 969.143H287.89V784.896h52.992c7.827 0 15.58 1.243 23.241 3.749 7.662 2.505 14.538 6.253 20.627 11.245 6.089 4.992 11.008 11.045 14.756 18.121s5.632 15.031 5.632 23.882c0 9.344-1.59 17.792-4.754 25.38a53.029 53.029 0 0 1-13.257 19.127c-5.669 5.157-12.508 9.161-20.498 11.995s-16.842 4.243-26.496 4.243h-22.254v66.505z m0-161.5v72.997H345.4c3.657 0 7.278-0.622 10.88-1.883 3.584-1.244 6.875-3.292 9.874-6.126 2.999-2.834 5.413-6.784 7.241-11.868 1.829-5.083 2.743-11.373 2.743-18.87 0-3-0.42-6.474-1.243-10.368a29.934 29.934 0 0 0-5.12-11.246 30.3 30.3 0 0 0-10.88-8.997c-4.663-2.413-10.844-3.62-18.505-3.62h-22.492z m271.25 64.256c0 15.16-1.627 28.124-4.882 38.876s-7.369 19.748-12.38 27.008-10.623 12.964-16.877 17.134-12.288 7.277-18.121 9.38a74.862 74.862 0 0 1-16 4.005c-4.828 0.548-8.412 0.84-10.752 0.84h-69.742V784.897h55.497c15.507 0 29.13 2.469 40.869 7.37s21.504 11.464 29.257 19.62 13.531 17.463 17.371 27.867c3.84 10.423 5.76 21.138 5.76 32.146z m-88.996 75.246c20.334 0 34.999-6.491 43.995-19.492s13.495-31.836 13.495-56.503a95.7 95.7 0 0 0-2.743-22.748c-1.847-7.497-5.376-14.28-10.624-20.37s-12.38-11.008-21.376-14.757-20.663-5.632-34.999-5.632H470.4v139.502h29.75zM663.15 807.643v58.003h77v20.498h-77v82.999h-30.5V784.896h115.236v22.747H663.15z" fill="#FFFFFF" p-id="2025"></path></svg>