<?xml version="1.0" standalone="no"?><!DOCTYPE svg PUBLIC "-//W3C//DTD SVG 1.1//EN" "http://www.w3.org/Graphics/SVG/1.1/DTD/svg11.dtd"><svg t="1555061063001" class="icon" style="" viewBox="0 0 1024 1024" version="1.1" xmlns="http://www.w3.org/2000/svg" p-id="13794" xmlns:xlink="http://www.w3.org/1999/xlink" width="200" height="200"><defs><style type="text/css"></style></defs><path d="M659.065474 294.094108 511.991814 441.158558 364.930433 294.094108l-70.842465 70.839395 147.071613 147.065474L294.087968 659.068544l70.842465 70.837348 147.06138-147.065474 147.07366 147.065474 70.830185-70.837348L582.832232 511.997953l147.06445-147.065474L659.065474 294.094108z" p-id="13795" fill="#777777"></path><path d="M785.398764 64.296375 238.539838 64.296375c-96.046496 0-174.244486 78.195943-174.244486 174.250626l0 546.971489c0 96.04752 78.19799 174.186158 174.244486 174.186158l546.919301 0c96.046496 0 174.244486-78.138638 174.244486-174.246533L959.703625 238.545978C959.703625 142.491295 881.505635 64.296375 785.398764 64.296375zM930.755316 785.457092c0 80.109526-65.194838 145.296177-145.356552 145.296177L238.539838 930.753269c-80.170924 0-145.350412-65.185628-145.350412-145.296177L93.189426 238.545978c0-80.176041 65.179488-145.358599 145.350412-145.358599l546.858926 0c80.161714 0 145.356552 65.183582 145.356552 145.358599L930.755316 785.457092z" p-id="13796" fill="#777777"></path></svg>